<svg width="61" height="60" viewBox="0 0 61 60" fill="none" xmlns="http://www.w3.org/2000/svg">
<path d="M44.6625 5.4925V5.6575H45.0525V6.7575H45.2325V5.6575H45.6225V5.4925H44.6625ZM46.9125 5.4925L46.475 6.375L46.045 5.4925H45.8275V6.7575H45.995V5.75L46.425 6.625H46.5375L46.9675 5.75V6.76H47.1325V5.495L46.9125 5.4925ZM36.27 7.9925C35.76 8.7675 35.21 9.6425 34.62 10.6425L34.52 10.7975C33.4099 12.6744 32.3553 14.5836 31.3575 16.5225C30.89 17.4225 30.4075 18.3775 29.915 19.3875L35.5825 18.7625C37.2325 18.0075 37.97 17.3175 38.6875 16.3225C38.8829 16.0401 39.0746 15.755 39.2625 15.4675C39.8375 14.56 40.4125 13.56 40.92 12.5675C41.4125 11.6025 41.845 10.65 42.1825 9.7925C42.39 9.2425 42.5575 8.7375 42.6775 8.2925C42.7825 7.8975 42.8625 7.525 42.9275 7.1675C40.7175 7.5425 38.015 7.905 36.2575 7.9925H36.27ZM29.885 19.45L29.6925 19.85C29.4975 20.25 29.3 20.65 29.1025 21.07C28.8875 21.52 28.6725 21.98 28.4525 22.45L28.1225 23.1675C26.8678 25.8887 25.6783 28.6395 24.555 31.4175C24.1475 32.41 23.7375 33.435 23.3225 34.4925C22.9475 35.4425 22.58 36.405 22.1975 37.4025L22.1475 37.5525C21.7725 38.5425 21.3975 39.5575 21.015 40.6025L20.99 40.67L22.79 40.47C22.7546 40.4685 22.7194 40.4635 22.685 40.455C24.8425 40.19 27.71 38.58 29.56 36.5875C30.415 35.67 31.19 34.5875 31.91 33.3225C32.4425 32.38 32.9425 31.335 33.42 30.1775C33.84 29.165 34.24 28.07 34.62 26.8825C34.13 27.145 33.5625 27.3325 32.9375 27.47C32.7126 27.5227 32.4847 27.5611 32.255 27.585C34.27 26.81 35.54 25.3225 36.4625 23.485C35.7307 23.9914 34.9095 24.3545 34.0425 24.555C33.8925 24.585 33.7525 24.61 33.6075 24.63L33.5 24.645H33.505C34.2 24.35 34.79 24.025 35.3 23.6375C35.9341 23.1592 36.474 22.5676 36.8925 21.8925L37.05 21.6325L37.2425 21.2475C37.5885 20.5572 37.8949 19.8477 38.16 19.1225L38.235 18.9025C38.3678 18.5254 38.4706 18.1383 38.5425 17.745C38.4685 17.8052 38.3899 17.8595 38.3075 17.9075C37.7 18.27 36.6575 18.6 35.8175 18.7575L37.475 18.5725L35.815 18.755H35.7725L35.5225 18.7975C35.5375 18.79 35.5475 18.7825 35.565 18.7775L29.9025 19.4025L29.87 19.4575L29.885 19.45ZM20.825 41.125C20.5325 41.9325 20.235 42.76 19.9375 43.605L19.925 43.6425C19.885 43.7575 19.845 43.8775 19.8 43.9975C19.6 44.565 19.425 45.0775 19.025 46.2475C19.685 46.5475 20.2125 47.335 20.7125 48.23C20.6649 47.2838 20.2463 46.3946 19.5475 45.755C22.78 45.905 25.5725 45.08 27.0225 42.7125C27.1475 42.5025 27.2625 42.28 27.3725 42.0425C26.7225 42.875 25.8975 43.2275 24.3725 43.1425C24.3725 43.1425 24.3625 43.1425 24.36 43.1475L24.37 43.1425C26.62 42.1325 27.755 41.1675 28.755 39.56C28.99 39.1775 29.22 38.76 29.455 38.3025C27.485 40.3275 25.2 40.9025 22.795 40.465L20.995 40.66C20.9368 40.8116 20.881 40.9642 20.8275 41.1175L20.825 41.125ZM38.7 0.279997C37.76 0.834997 36.2 2.405 34.33 4.6875L36.045 7.9225C37.245 6.205 38.47 4.655 39.7 3.3325L39.845 3.1775C39.795 3.2275 39.745 3.2775 39.7025 3.3325C39.3025 3.7725 38.0925 5.1825 36.265 7.99C38.0225 7.9025 40.725 7.54 42.93 7.165C43.585 3.49 42.285 1.81 42.285 1.81C42.285 1.81 40.635 -0.865003 38.695 0.284997L38.7 0.279997ZM30.99 16.285C32.017 14.3669 33.1059 12.4825 34.255 10.635L34.355 10.475C34.915 9.595 35.48 8.7425 36.0475 7.925L34.335 4.6925L33.9425 5.1725C33.45 5.785 32.935 6.4475 32.41 7.1475C30.6193 9.54554 28.9376 12.0231 27.37 14.5725L27.315 14.6675L29.5475 19.075C30.0225 18.13 30.4975 17.195 30.985 16.28L30.99 16.285ZM21.665 37.085C22.06 36.07 22.4625 35.06 22.8725 34.0225C23.2625 33.0375 23.6725 32.0475 24.0825 31.0475C25.3507 28.0157 26.6843 25.0116 28.0825 22.0375L28.595 20.9775C28.895 20.37 29.1875 19.765 29.495 19.1675C29.5055 19.1314 29.5224 19.0976 29.545 19.0675L27.3075 14.66L27.1975 14.835C26.68 15.685 26.1625 16.5525 25.655 17.44C24.6935 19.1119 23.7831 20.8127 22.925 22.54L22.69 23.0225C21.4682 25.5208 20.4174 28.0993 19.545 30.74C19.0191 32.3787 18.585 34.0454 18.245 35.7325L20.485 40.1575C20.7775 39.365 21.085 38.5625 21.395 37.75L21.665 37.085ZM18.225 35.895C17.9401 37.2911 17.7447 38.704 17.64 40.125C17.64 40.175 17.63 40.225 17.6275 40.275C16.9275 39.15 15.0525 38.055 15.0625 38.065C16.405 40.01 17.4225 41.94 17.575 43.84C16.85 43.985 15.865 43.7725 14.725 43.3525C15.9125 44.4425 16.8 44.7425 17.15 44.8225C16.065 44.8975 14.925 45.6425 13.785 46.4975C15.455 45.8225 16.81 45.5475 17.775 45.7725C16.25 50.1225 14.7 54.91 13.1675 59.9975C13.3803 59.9363 13.5747 59.8235 13.7335 59.6691C13.8922 59.5147 14.0104 59.3235 14.0775 59.1125C14.3525 58.1925 16.1775 52.1475 19.0225 44.2L19.265 43.525L19.335 43.33C19.635 42.5 19.95 41.65 20.27 40.78L20.495 40.1875V40.1775L18.25 35.75C18.2425 35.8 18.225 35.85 18.22 35.9L18.225 35.895Z" fill="white"/>
</svg>
