<svg width="61" height="60" viewBox="0 0 61 60" fill="none" xmlns="http://www.w3.org/2000/svg">
<path d="M29.5749 28.1001H25.0399V20.5051H30.4199C33.3449 20.5051 35.0049 21.8101 35.0049 24.1701C35.0049 26.6901 33.0724 28.1001 29.5699 28.1001H29.5749ZM30.3849 31.1151H25.0424V39.4851H30.6199C34.2674 39.4851 36.1999 38.0226 36.1999 35.2726C36.1999 32.5226 34.2124 31.1151 30.3849 31.1151ZM60.1499 28.4751V31.5201C57.3299 31.7901 55.6074 33.8801 54.5849 37.1901C53.5674 40.4876 53.4274 44.5326 53.5349 47.6551C53.6474 50.9051 51.1149 53.9051 47.6924 53.9051H12.6124C9.1874 53.9051 6.6549 50.9051 6.7699 47.6551C6.8774 44.5326 6.7374 40.4876 5.7199 37.1901C4.6949 33.8801 2.9699 31.7901 0.149902 31.5201V28.4751C2.9699 28.2051 4.6974 26.1151 5.7174 22.8051C6.7374 19.5076 6.8774 15.4626 6.7674 12.3401C6.6549 9.09009 9.1874 6.09009 12.6124 6.09009H47.6924C51.1174 6.09009 53.6474 9.09009 53.5349 12.3401C53.4274 15.4626 53.5674 19.5076 54.5849 22.8051C55.6074 26.1151 57.3299 28.2051 60.1499 28.4751ZM40.3324 35.5176C40.3324 32.1326 37.9499 29.6851 34.4124 29.2976V29.1551C37.0124 28.7326 39.0524 26.3176 39.0524 23.6226C39.0524 19.7801 36.0199 17.2776 31.3974 17.2776H20.9974V42.7076H31.4499C36.9949 42.7076 40.3324 39.9926 40.3324 35.5176Z" fill="white"/>
</svg>
