<svg width="61" height="61" viewBox="0 0 61 61" fill="none" xmlns="http://www.w3.org/2000/svg">
<path d="M0.149902 0.616577V51.0166C0.149902 53.5627 1.16133 56.0045 2.96168 57.8048C4.76203 59.6052 7.20382 60.6166 9.7499 60.6166H50.5499C53.096 60.6166 55.5378 59.6052 57.3381 57.8048C59.1385 56.0045 60.1499 53.5627 60.1499 51.0166V10.2166C60.1499 7.6705 59.1385 5.2287 57.3381 3.42835C55.5378 1.628 53.096 0.616577 50.5499 0.616577L0.149902 0.616577ZM35.7899 33.3166C39.6899 33.3166 41.4899 36.0166 41.5499 39.9166H37.5299C37.5899 39.1966 37.4099 38.4166 37.1699 37.8166C36.9299 37.3366 36.4499 37.1566 35.7899 37.1566C34.6499 37.1566 34.0499 37.8166 34.0499 39.2566C33.9899 40.6966 34.7699 41.4766 35.9699 41.9566C37.7699 42.6766 39.9899 43.8166 40.7699 45.1966C41.4899 46.2766 41.8499 47.6566 41.8499 49.3366C41.8499 53.3566 39.5699 55.8166 35.6099 55.8166C31.4699 55.8166 29.6099 53.2366 29.5499 49.0966H33.7499C33.7499 51.0766 34.4099 52.0366 35.7299 52.0366C36.3899 52.0366 36.8699 51.8566 37.1099 51.4366C37.5899 50.6566 37.7099 48.4966 36.9899 47.6566C36.2099 46.6366 34.7099 46.1566 33.6899 45.6166C32.3099 44.9566 31.2899 44.1766 30.6299 43.2766C30.0299 42.3766 29.7299 41.0566 29.7299 39.4366C29.7299 35.8366 32.0699 33.2566 35.7899 33.3166ZM49.2899 33.3166C53.2499 33.3166 55.0499 36.0166 55.1099 39.9166H51.0899C51.0899 39.1966 50.9699 38.4166 50.6699 37.8166C50.4299 37.3366 50.0099 37.1566 49.3499 37.1566C48.1499 37.1566 47.5499 37.8166 47.5499 39.2566C47.5499 40.6966 48.2699 41.4766 49.5299 41.9566C51.2699 42.6766 53.5499 43.8166 54.3299 45.1966C54.9899 46.2766 55.3499 47.6566 55.3499 49.3366C55.4099 53.3566 53.1299 55.8166 49.1699 55.8166C44.9699 55.8166 43.1099 53.1766 43.0499 49.0966H47.2499C47.2499 50.9566 47.9099 52.0366 49.2299 52.0366C49.8899 52.0366 50.3699 51.8566 50.6099 51.4366C51.1499 50.6566 51.2699 48.4966 50.4899 47.6566C49.7699 46.6366 48.2699 46.1566 47.1899 45.6166C45.8099 44.9566 44.7899 44.1766 44.1899 43.2766C43.5899 42.3766 43.2899 41.0566 43.2899 39.4366C43.2299 35.8366 45.5699 33.2566 49.2899 33.3166ZM21.7124 33.3616C23.4899 33.3466 25.2599 33.8566 26.3099 34.9366C27.3899 36.0166 27.9899 37.7566 27.9299 39.9166H23.4899C23.5499 38.7766 23.2499 37.9366 22.4099 37.5166C21.6299 37.1566 20.4899 37.3966 20.1899 38.1166C19.8899 38.7766 19.7099 39.5566 19.7699 40.2766V49.0366C19.7699 50.8966 20.4299 51.8566 21.6899 51.8566C21.9564 51.8683 22.2217 51.8142 22.4624 51.6991C22.7031 51.584 22.9117 51.4114 23.0699 51.1966C23.4899 50.5966 23.5499 49.8166 23.4899 49.0966H27.9299C28.1699 53.1766 25.4699 55.8766 21.5099 55.8166C17.6699 55.8166 15.2699 53.6566 15.3299 49.6366V39.5566C15.3299 37.5166 15.9299 35.9566 17.0699 34.9366C18.1499 33.9166 19.9349 33.3766 21.7124 33.3616Z" fill="white"/>
</svg>
