<svg width="61" height="60" viewBox="0 0 61 60" fill="none" xmlns="http://www.w3.org/2000/svg">
<path d="M38.0003 21.1463C37.9536 21.1459 37.9073 21.1461 37.8612 21.1468C37.1509 21.158 35.629 21.1552 34.2661 21.7721C32.9032 22.389 31.7048 23.6675 31.7048 26.1069C31.7048 27.1381 32.0492 28.0293 32.5892 28.7928H21.709V23.8658H28.8518V21.3576H18.837V23.8658L18.8377 28.7928L18.837 31.3011L18.8377 37.1398L17.1597 37.1298L14.8376 37.1405L11.2024 31.493C12.0545 31.1416 12.8883 30.6362 13.5301 29.928C14.2282 29.1577 14.6956 28.1513 14.6956 26.906V26.5479C14.6956 24.7256 14.0007 23.4184 12.8675 22.585C11.7342 21.7515 10.184 21.3832 8.46094 21.3439H2.92969V23.8804H2.94382V29.8373H2.92971V32.2051H2.94382V39.6366H5.8152V32.1976L8.70289 32.1894L12.6673 38.639L12.6729 38.6465C13.0086 39.0911 13.7064 40.0782 14.8341 40.7891L14.9296 40.8493L17.2085 39.6475L19.0336 39.6365H28.8511V37.0299H21.7088V31.3008H35.8318C35.8369 31.3032 35.8408 31.3051 35.8464 31.3077C36.7213 31.7077 37.7833 32.0697 38.6099 32.5912C39.4366 33.1127 40.0147 33.7578 40.0147 34.7827C40.0147 35.8859 39.517 36.4635 38.8153 36.8141C38.1135 37.1647 37.1965 37.2515 36.4415 37.2515H36.4402C34.9932 37.2605 33.2911 36.6457 31.8376 36.1603L31.5805 36.0745V38.8324L31.6949 38.8845C33.1214 39.5348 35.2346 39.7887 36.4456 39.7426C37.3143 39.7421 38.9007 39.572 40.3011 38.8711C41.7034 38.1693 42.9188 36.8979 42.9188 34.7827C42.9188 33.1459 42.3027 31.9722 41.4407 31.1322C40.5786 30.2922 39.4801 29.777 38.4992 29.3948C38.1272 29.2513 37.4209 28.9693 36.7194 28.5874C36.0189 28.2061 35.3263 27.7185 34.9801 27.2074C34.7648 26.8577 34.6319 26.4683 34.6086 26.1004C34.6107 24.985 35.1305 24.3835 35.8038 24.0287C36.4783 23.6732 37.3186 23.5978 37.8672 23.6373C38.9712 23.717 40.8733 24.3399 41.4817 24.5997L41.6753 24.6823L41.9569 23.855H49.5713V39.6364H52.4427V23.855H57.6041V21.3689H52.4427V21.3578H49.5713V21.3689H39.6493C39.0982 21.2358 38.5447 21.1512 38.0003 21.1463ZM37.9967 21.5369C38.5122 21.5415 39.0471 21.6224 39.5856 21.7542L39.6085 21.7598H49.9627V21.7487H52.053V21.7598H57.2144V23.4647H52.053V39.2461H49.9627V23.4647H41.678L41.4393 24.1665C40.6718 23.862 39.023 23.3294 37.8962 23.2481C37.2865 23.2041 36.3925 23.2776 35.6225 23.6834C34.8524 24.0893 34.2184 24.8602 34.2184 26.1069V26.1128L34.2188 26.1187C34.2458 26.5658 34.4029 27.0159 34.6511 27.4174L34.6531 27.4207L34.6553 27.4239C35.0689 28.0367 35.8062 28.5349 36.5334 28.9308C37.2606 29.3266 37.9813 29.6137 38.3587 29.7592C39.3201 30.1338 40.369 30.6329 41.1688 31.4122C41.9687 32.1917 42.5289 33.2426 42.5289 34.7831C42.5289 36.7517 41.4449 37.8626 40.127 38.5222C38.809 39.1818 37.2574 39.3526 36.4422 39.3526H36.4384L36.4347 39.3527C35.3299 39.3952 33.3033 39.1456 31.9719 38.5747V36.6174C33.3636 37.0867 34.9747 37.6515 36.4435 37.6424C37.2265 37.6423 38.193 37.5623 38.9906 37.1638C39.7886 36.7651 40.4061 36.0108 40.4061 34.7831C40.4061 33.6067 39.7033 32.8189 38.8191 32.2611C37.9348 31.7033 36.8557 31.3396 36.0096 30.9528C35.9948 30.946 35.9776 30.9377 35.9579 30.9286L35.9189 30.9106H21.3188V37.4206H28.4611V39.2461H19.0327L17.1109 39.2575L14.9517 40.3962C13.9594 39.7416 13.3263 38.8635 12.9903 38.4181L8.92107 31.7985L5.4249 31.8081V39.2462H3.33465V31.8147H3.32054V30.2281H3.33465V23.4898H3.32054V21.7344H8.45241C10.1248 21.7725 11.5966 22.1349 12.6364 22.8996C13.6763 23.6643 14.3054 24.8228 14.3054 26.5478V26.906C14.3054 28.0546 13.8847 28.9555 13.2411 29.6656C12.5976 30.3757 11.7263 30.8892 10.8413 31.2241L10.6164 31.3092C11.9583 33.3797 13.2899 35.457 14.6253 37.5319L17.1598 37.5202L19.2287 37.5325V30.9105L19.2279 29.1834L19.2287 23.4749L19.2279 21.748H28.4619V23.4749H21.319V29.1834H33.3781L33.1161 28.8641C32.4838 28.0939 32.0957 27.1871 32.0957 26.1069C32.0957 23.7917 33.1653 22.699 34.4274 22.1278C35.6894 21.5566 37.1497 21.5487 37.8676 21.5374C37.9108 21.5367 37.9536 21.5365 37.9967 21.5369ZM5.42467 23.4899V30.2282H7.79486C8.79152 30.2282 9.83932 30.0819 10.6603 29.5875C11.4813 29.0931 12.0542 28.2279 12.0542 26.9063V26.5481C12.0542 25.21 11.3024 24.4136 10.4903 23.9928C9.67821 23.572 8.81327 23.4901 8.45655 23.4901L5.42467 23.4899ZM5.81526 23.8805H8.45652C8.74731 23.8805 9.58349 23.9625 10.3107 24.3394C11.0378 24.7162 11.6636 25.3512 11.6636 26.548V26.9061C11.6636 28.1194 11.1813 28.8176 10.4587 29.2527C9.73616 29.6878 8.75207 29.8374 7.79484 29.8374H5.81521L5.81526 23.8805Z" fill="white"/>
<path fill-rule="evenodd" clip-rule="evenodd" d="M37.9967 21.5369C38.5122 21.5415 39.0471 21.6224 39.5856 21.7542L39.6085 21.7598H49.9627V21.7487H52.053V21.7598H57.2144V23.4647H52.053V39.2461H49.9627V23.4647H41.678L41.4393 24.1665C40.6718 23.862 39.023 23.3294 37.8962 23.2481C37.2865 23.2041 36.3925 23.2776 35.6225 23.6834C34.8524 24.0893 34.2184 24.8602 34.2184 26.1069V26.1128L34.2188 26.1187C34.2458 26.5658 34.4029 27.0159 34.6511 27.4174L34.6531 27.4207L34.6553 27.4239C35.0689 28.0367 35.8062 28.5349 36.5334 28.9308C37.2606 29.3266 37.9813 29.6137 38.3587 29.7592C39.3201 30.1338 40.369 30.6329 41.1688 31.4122C41.9687 32.1917 42.5289 33.2426 42.5289 34.7831C42.5289 36.7517 41.4449 37.8626 40.127 38.5222C38.809 39.1818 37.2574 39.3526 36.4422 39.3526H36.4384L36.4347 39.3527C35.3299 39.3952 33.3033 39.1456 31.9719 38.5747V36.6174C33.3636 37.0867 34.9747 37.6515 36.4435 37.6424C37.2265 37.6423 38.193 37.5623 38.9906 37.1638C39.7886 36.7651 40.4061 36.0108 40.4061 34.7831C40.4061 33.6067 39.7033 32.8189 38.8191 32.2611C37.9348 31.7033 36.8557 31.3396 36.0096 30.9528C35.9948 30.946 35.9776 30.9377 35.9579 30.9286L35.9189 30.9106H21.3188V37.4206H28.4611V39.2461H19.0327L17.1109 39.2575L14.9517 40.3962C13.9594 39.7416 13.3263 38.8635 12.9903 38.4181L8.92107 31.7985L5.4249 31.8081V39.2462H3.33465V31.8147H3.32054V30.2281H3.33465V23.4898H3.32054V21.7344H8.45241C10.1248 21.7725 11.5966 22.1349 12.6364 22.8996C13.6763 23.6643 14.3054 24.8228 14.3054 26.5478V26.906C14.3054 28.0546 13.8847 28.9555 13.2411 29.6656C12.5976 30.3757 11.7263 30.8892 10.8413 31.2241L10.6164 31.3092C11.9583 33.3797 13.2899 35.457 14.6253 37.5319L17.1598 37.5202L19.2287 37.5325V30.9105L19.2279 29.1834L19.2287 23.4749L19.2279 21.748H28.4619V23.4749H21.319V29.1834H33.3781L33.1161 28.8641C32.4838 28.0939 32.0957 27.1871 32.0957 26.1069C32.0957 23.7917 33.1653 22.699 34.4274 22.1278C35.6894 21.5566 37.1497 21.5487 37.8676 21.5374C37.9108 21.5367 37.9536 21.5365 37.9967 21.5369ZM5.42467 30.2282V23.4899L8.45655 23.4901C8.81327 23.4901 9.67821 23.572 10.4903 23.9928C11.3024 24.4136 12.0542 25.21 12.0542 26.5481V26.9063C12.0542 28.2279 11.4813 29.0931 10.6603 29.5875C9.83932 30.0819 8.79152 30.2282 7.79486 30.2282H5.42467Z" fill="white"/>
<path d="M5.65966 13.3196C5.6424 13.3196 5.62584 13.3264 5.61363 13.3386C5.60143 13.3509 5.59457 13.3674 5.59456 13.3847V14.6711C5.59456 14.7402 5.59888 14.8275 5.60715 14.934C5.61067 14.979 5.61421 15.0041 5.6177 15.0411C5.56644 14.9828 5.52002 14.9209 5.45636 14.8719C5.35342 14.7906 5.23167 14.7267 5.09235 14.6798C4.95061 14.632 4.78764 14.6089 4.60363 14.6089C4.16627 14.6089 3.80577 14.7589 3.53933 15.0555C3.27068 15.3525 3.14087 15.7874 3.14087 16.3502C3.14087 16.907 3.26752 17.3371 3.53005 17.6304C3.53001 17.6303 3.5301 17.6304 3.53005 17.6304C3.79279 17.9214 4.15348 18.068 4.59448 18.068C4.78249 18.068 4.9474 18.045 5.08934 17.9972C5.08951 17.9971 5.08968 17.9971 5.08986 17.997C5.23116 17.9481 5.35393 17.8823 5.45692 17.7989C5.52863 17.742 5.58074 17.6739 5.63543 17.6073L5.69405 17.9552C5.6966 17.9704 5.70445 17.9842 5.71621 17.9941C5.72796 18.004 5.74286 18.0095 5.75825 18.0095H6.17083C6.1881 18.0095 6.20465 18.0026 6.21686 17.9904C6.22907 17.9782 6.23593 17.9617 6.23593 17.9444V13.3847C6.23593 13.3674 6.22907 13.3509 6.21686 13.3387C6.20465 13.3264 6.1881 13.3196 6.17083 13.3196L5.65966 13.3196ZM7.58843 13.4662C7.48723 13.4662 7.39515 13.4984 7.32371 13.5617C7.24889 13.6278 7.21552 13.7299 7.21552 13.8507C7.21552 13.9697 7.24912 14.0712 7.32283 14.1389C7.32308 14.1391 7.32332 14.1394 7.32358 14.1396C7.39503 14.203 7.48718 14.2352 7.58842 14.2352C7.68592 14.2352 7.7757 14.2025 7.84651 14.14C7.92443 14.0731 7.96145 13.9704 7.96145 13.8506C7.96145 13.7294 7.92461 13.6263 7.84588 13.5609C7.77514 13.4987 7.68567 13.4662 7.58843 13.4662ZM17.7926 14.5431C17.5148 14.5431 17.2746 14.5872 17.0733 14.6779C16.8723 14.7684 16.7149 14.9027 16.6074 15.078C16.4995 15.2519 16.4468 15.4613 16.4468 15.7012C16.4468 15.9289 16.5047 16.1335 16.6208 16.3086C16.6209 16.3088 16.6211 16.3091 16.6213 16.3093C16.7163 16.4484 16.8422 16.5477 16.9843 16.6226C16.8835 16.69 16.7969 16.76 16.7376 16.8363C16.7375 16.8364 16.7377 16.8363 16.7376 16.8363C16.6613 16.9353 16.6223 17.0542 16.6223 17.1839C16.6223 17.2987 16.6585 17.4049 16.7286 17.4938C16.7288 17.4941 16.729 17.4943 16.7292 17.4945C16.7662 17.54 16.8082 17.5789 16.8534 17.6128C16.6737 17.6686 16.5154 17.7473 16.4 17.8687C16.3999 17.8689 16.3998 17.869 16.3997 17.8691C16.2558 18.0229 16.182 18.2137 16.182 18.4293C16.182 18.7308 16.3165 18.9769 16.5714 19.143C16.5714 19.1429 16.5715 19.143 16.5714 19.143C16.8269 19.3112 17.1817 19.391 17.6325 19.391C18.2144 19.391 18.6653 19.2963 18.9847 19.0971C19.304 18.8979 19.4709 18.5983 19.4709 18.2242C19.4709 17.9278 19.3624 17.6888 19.1495 17.5304C18.9388 17.3722 18.6426 17.2976 18.2667 17.2976H17.6724C17.5692 17.2976 17.4823 17.29 17.4124 17.2756C17.3447 17.2599 17.2975 17.2362 17.2676 17.2094C17.2422 17.185 17.2296 17.1565 17.2296 17.1078C17.2296 17.0373 17.2496 16.9798 17.292 16.9262C17.3355 16.8738 17.4039 16.8233 17.4909 16.7758C17.5825 16.789 17.6731 16.7978 17.7618 16.7978C18.1702 16.7978 18.4999 16.7009 18.7421 16.5016C18.742 16.5016 18.7421 16.5015 18.7421 16.5016C18.9837 16.3006 19.1076 16.0224 19.1076 15.6866C19.1076 15.5489 19.0859 15.4215 19.0417 15.3058C19.0125 15.2292 18.9703 15.1696 18.9304 15.1069L19.4565 15.0449C19.4723 15.043 19.4869 15.0354 19.4975 15.0235C19.5081 15.0116 19.5139 14.9962 19.514 14.9803V14.6668C19.514 14.6495 19.5071 14.633 19.4949 14.6208C19.4827 14.6086 19.4661 14.6017 19.4489 14.6017H18.2973C18.2555 14.5904 18.2096 14.5807 18.157 14.5732C18.0993 14.5631 18.0387 14.5561 17.9754 14.5521C17.9146 14.5462 17.8536 14.5431 17.7926 14.5431ZM10.3311 14.5548C10.1083 14.5548 9.89525 14.5819 9.69246 14.6362C9.49208 14.6898 9.3137 14.7546 9.15733 14.8311C9.14237 14.8384 9.13079 14.8512 9.12497 14.8668C9.11915 14.8824 9.11954 14.8996 9.12605 14.915L9.28295 15.2842C9.28635 15.2922 9.29134 15.2995 9.2976 15.3056C9.30387 15.3116 9.31129 15.3164 9.31942 15.3195C9.32756 15.3227 9.33624 15.3241 9.34496 15.3239C9.35368 15.3236 9.36225 15.3216 9.37017 15.3179C9.511 15.2528 9.66005 15.1962 9.81746 15.1482C9.97116 15.1013 10.1329 15.0777 10.3034 15.0777C10.5206 15.0777 10.6792 15.1299 10.7897 15.2283C10.8949 15.3218 10.9557 15.4952 10.9557 15.7628V15.8965L10.4363 15.9175C9.88424 15.9334 9.46747 16.0268 9.18458 16.209C8.90228 16.3909 8.75445 16.6638 8.75445 17.0023C8.75445 17.2244 8.80178 17.4138 8.90041 17.5653C8.90054 17.5655 8.90067 17.5657 8.9008 17.5659C8.99994 17.7148 9.13635 17.8273 9.30487 17.9002C9.30478 17.9002 9.30495 17.9002 9.30487 17.9002C9.47421 17.9725 9.66621 18.008 9.87869 18.008C10.078 18.008 10.2479 17.9883 10.3895 17.9469C10.3897 17.9468 10.3899 17.9468 10.39 17.9467C10.5321 17.9037 10.6585 17.8406 10.7678 17.7574C10.768 17.7573 10.7682 17.7571 10.7684 17.7569C10.8512 17.6923 10.9282 17.6069 11.0049 17.5203L11.0834 17.8977C11.0864 17.9123 11.0944 17.9255 11.106 17.9349C11.1176 17.9444 11.1321 17.9495 11.1471 17.9495H11.5196C11.5369 17.9495 11.5534 17.9427 11.5656 17.9305C11.5778 17.9183 11.5847 17.9017 11.5847 17.8844V15.7013C11.5847 15.313 11.483 15.0166 11.2703 14.8291C11.0586 14.6425 10.7426 14.5548 10.3311 14.5548ZM14.2563 14.6089C14.0987 14.6089 13.9477 14.6304 13.804 14.6733C13.6602 14.7142 13.5292 14.7758 13.4124 14.8581C13.3274 14.9167 13.2565 14.9896 13.1929 15.069L13.1353 14.7221C13.1328 14.7069 13.125 14.6931 13.1132 14.6831C13.1014 14.6732 13.0865 14.6677 13.0711 14.6677H12.6585C12.6413 14.6677 12.6247 14.6746 12.6125 14.6868C12.6003 14.699 12.5934 14.7155 12.5934 14.7328V17.9444C12.5934 17.9617 12.6003 17.9782 12.6125 17.9905C12.6247 18.0027 12.6413 18.0095 12.6585 18.0095H13.1697C13.1869 18.0095 13.2035 18.0027 13.2157 17.9905C13.2279 17.9782 13.2348 17.9617 13.2348 17.9444V16.2623C13.2348 15.888 13.3095 15.6108 13.4494 15.4255C13.5858 15.2447 13.8237 15.1494 14.1855 15.1494C14.4394 15.1494 14.6149 15.212 14.7265 15.3286C14.7267 15.3287 14.7268 15.3288 14.7269 15.329C14.841 15.4462 14.9025 15.6272 14.9025 15.8843V17.9445C14.9025 17.9617 14.9094 17.9783 14.9216 17.9905C14.9338 18.0027 14.9503 18.0095 14.9676 18.0095H15.4725C15.4898 18.0095 15.5063 18.0027 15.5185 17.9905C15.5307 17.9783 15.5376 17.9617 15.5376 17.9445V15.8522C15.5376 15.4294 15.4314 15.1091 15.2085 14.9074C14.9877 14.7057 14.6666 14.6089 14.2563 14.6089ZM21.5356 14.615C21.2045 14.615 20.9146 14.6825 20.6695 14.8196C20.4264 14.9548 20.2379 15.1542 20.1075 15.4126C19.9766 15.6699 19.9127 15.9793 19.9127 16.3386C19.9127 16.6084 19.9504 16.8514 20.0272 17.0668C20.0273 17.0669 20.0273 17.0671 20.0274 17.0673C20.106 17.2816 20.2163 17.4646 20.3584 17.6143C20.3584 17.6142 20.3585 17.6143 20.3584 17.6143C20.5022 17.7633 20.6728 17.8785 20.8675 17.9579C20.8678 17.9581 20.868 17.9582 20.8683 17.9583C21.0653 18.0358 21.2811 18.0741 21.514 18.0741C21.7629 18.0741 21.9877 18.0359 22.1873 17.9583C22.1872 17.9584 22.1873 17.9583 22.1873 17.9583C22.3883 17.8789 22.5613 17.7638 22.7033 17.6143C22.8457 17.4644 22.9542 17.281 23.0287 17.0663C23.1033 16.8511 23.1399 16.6083 23.1399 16.3386C23.1399 15.9809 23.0738 15.6721 22.9385 15.4147C22.8061 15.1568 22.6168 14.9567 22.3743 14.8198C22.1336 14.6828 21.8526 14.615 21.5356 14.615ZM7.32682 14.6677C7.30955 14.6677 7.293 14.6745 7.28079 14.6868C7.26858 14.699 7.26172 14.7155 7.26172 14.7328V18.463C7.26172 18.6488 7.21987 18.7622 7.15505 18.818C7.08202 18.8809 6.98684 18.9136 6.85881 18.9136C6.77979 18.9136 6.70968 18.908 6.64864 18.8971C6.648 18.897 6.64736 18.8968 6.64672 18.8967C6.58424 18.8874 6.52273 18.8736 6.46223 18.855C6.4525 18.852 6.44221 18.8514 6.43218 18.8531C6.42215 18.8548 6.41266 18.8589 6.40448 18.8649C6.3963 18.871 6.38964 18.8788 6.38506 18.8879C6.38047 18.897 6.37807 18.907 6.37806 18.9172V19.3129C6.37808 19.3264 6.38234 19.3397 6.39025 19.3507C6.39817 19.3617 6.40933 19.37 6.42218 19.3744C6.48354 19.3953 6.55434 19.4126 6.63451 19.4267C6.71786 19.4433 6.81291 19.4512 6.92046 19.4512C7.1375 19.4512 7.32109 19.4128 7.46894 19.3318C7.61561 19.2514 7.72715 19.1324 7.79824 18.9803C7.86895 18.8309 7.90301 18.654 7.90301 18.4513V14.7328C7.90301 14.7155 7.89615 14.699 7.88394 14.6868C7.87173 14.6746 7.85518 14.6677 7.83791 14.6677L7.32682 14.6677ZM17.7743 15.0337C18.0078 15.0337 18.1731 15.0907 18.2831 15.1971C18.2833 15.1972 18.2834 15.1974 18.2835 15.1975C18.3929 15.3016 18.4511 15.4606 18.4511 15.6895C18.4511 15.9023 18.3947 16.0523 18.2866 16.1551C18.179 16.2575 18.0143 16.3131 17.7804 16.3131C17.5552 16.3131 17.3921 16.2581 17.2796 16.1545C17.1672 16.051 17.1098 15.9045 17.1098 15.6983C17.1098 15.4714 17.1679 15.3109 17.2781 15.2026C17.3911 15.0915 17.552 15.0337 17.7743 15.0337ZM4.67463 15.1436C5.03759 15.1436 5.26844 15.2452 5.3958 15.442C5.39589 15.4421 5.39597 15.4422 5.39606 15.4424C5.52954 15.6456 5.60089 15.9467 5.60089 16.3474V16.4353C5.60089 16.8117 5.52696 17.0869 5.3897 17.2659C5.25525 17.4412 5.02415 17.5334 4.67467 17.5334C4.37352 17.5334 4.16321 17.4361 4.0195 17.2384C3.87671 17.0389 3.8008 16.7479 3.8008 16.362C3.8008 15.974 3.87733 15.675 4.02343 15.4609C4.02339 15.461 4.02348 15.4609 4.02343 15.4609C4.16805 15.2472 4.37653 15.1436 4.67463 15.1436ZM21.5234 15.1554C21.7522 15.1554 21.9323 15.2039 22.0688 15.2965C22.2072 15.3904 22.3092 15.5226 22.377 15.6997C22.377 15.6996 22.3771 15.6998 22.377 15.6997C22.4452 15.8759 22.4805 16.0888 22.4805 16.3386C22.4805 16.5904 22.4453 16.8063 22.3769 16.9866C22.309 17.1656 22.2062 17.2997 22.0656 17.3955C22.0655 17.3956 22.0658 17.3954 22.0656 17.3955C21.9289 17.4901 21.7509 17.5395 21.5266 17.5395C21.3 17.5395 21.1213 17.4902 20.9847 17.3958C20.8461 17.3 20.744 17.1658 20.6761 16.9866C20.6078 16.8063 20.5726 16.5904 20.5726 16.3386C20.5726 15.9571 20.6519 15.6663 20.803 15.4603C20.803 15.4602 20.8032 15.46 20.8033 15.4599C20.9542 15.2572 21.1863 15.1554 21.5234 15.1554ZM10.9493 16.3696V16.598C10.9493 16.9013 10.861 17.1152 10.6865 17.2599C10.5085 17.4074 10.2805 17.4822 9.99229 17.4822C9.80923 17.4822 9.66972 17.4411 9.56649 17.3635C9.46691 17.2887 9.41697 17.1779 9.41697 17.0081C9.41697 16.8149 9.48957 16.678 9.64672 16.5729C9.7999 16.4705 10.0875 16.403 10.5027 16.3875C10.5026 16.3875 10.5027 16.3875 10.5027 16.3875L10.9493 16.3696ZM17.5062 17.882H18.0912C18.2606 17.882 18.4025 17.8938 18.5157 17.9161C18.5161 17.9161 18.5164 17.9161 18.5168 17.9162C18.6263 17.936 18.7023 17.974 18.7518 18.0258C18.7989 18.0768 18.8265 18.1557 18.8265 18.274C18.8265 18.3982 18.7875 18.4988 18.7054 18.5874C18.7051 18.5877 18.7047 18.5881 18.7044 18.5884C18.625 18.6777 18.4994 18.75 18.3226 18.8005C18.3223 18.8006 18.3221 18.8006 18.3218 18.8007C18.1479 18.8528 17.9227 18.8801 17.6479 18.8801C17.3696 18.8801 17.1611 18.8342 17.0223 18.7514C17.0222 18.7513 17.022 18.7512 17.0218 18.7511C16.8837 18.6705 16.8232 18.5665 16.8232 18.4118C16.8232 18.291 16.8501 18.1958 16.901 18.1204C16.9548 18.0438 17.0302 17.9858 17.1331 17.9448C17.2366 17.9036 17.3607 17.882 17.5062 17.882ZM25.9999 41.9579C25.7625 41.9579 25.5571 41.9993 25.3858 42.0849C25.2134 42.1712 25.08 42.3081 24.9904 42.489C24.9001 42.6694 24.8573 42.8983 24.8573 43.1746V43.3387L24.3083 43.4868C24.2945 43.4906 24.2822 43.4987 24.2735 43.5101C24.2648 43.5215 24.2601 43.5354 24.2601 43.5498V43.7841C24.2601 43.8014 24.267 43.8179 24.2792 43.8301C24.2914 43.8423 24.3079 43.8492 24.3252 43.8492H24.8573V46.6148C24.8573 46.6321 24.8641 46.6486 24.8763 46.6608C24.8886 46.673 24.9051 46.6799 24.9224 46.6799H25.4335C25.4508 46.6799 25.4673 46.673 25.4795 46.6608C25.4917 46.6486 25.4986 46.6321 25.4986 46.6148V43.8492H26.2739C26.2912 43.8492 26.3077 43.8423 26.3199 43.8301C26.3321 43.8179 26.339 43.8014 26.339 43.7841V43.4032C26.339 43.3859 26.3321 43.3693 26.3199 43.3571C26.3077 43.3449 26.2912 43.3381 26.2739 43.3381H25.4986V43.1687C25.4986 42.9207 25.5449 42.7474 25.6233 42.646C25.7044 42.5422 25.8247 42.4895 26.0062 42.4895C26.0918 42.4895 26.1751 42.4986 26.2565 42.5171C26.257 42.5172 26.2576 42.5174 26.2581 42.5175C26.3446 42.5347 26.4216 42.5539 26.4888 42.5746C26.5049 42.5796 26.5224 42.5781 26.5374 42.5704C26.5525 42.5628 26.564 42.5496 26.5695 42.5336L26.7019 42.1497C26.7047 42.1415 26.7058 42.1329 26.7053 42.1244C26.7047 42.1158 26.7025 42.1074 26.6987 42.0997C26.6949 42.092 26.6896 42.0851 26.6831 42.0794C26.6766 42.0738 26.6691 42.0695 26.6609 42.0668C26.5756 42.0383 26.4776 42.0133 26.3669 41.9914C26.2551 41.9689 26.1328 41.9579 25.9999 41.9579ZM54.6438 41.9901C54.6266 41.9901 54.61 41.9969 54.5978 42.0092C54.5856 42.0214 54.5788 42.0379 54.5788 42.0552V46.6148C54.5788 46.632 54.5856 46.6486 54.5978 46.6608C54.61 46.673 54.6266 46.6798 54.6438 46.6799H55.1519C55.1692 46.6798 55.1857 46.673 55.198 46.6608C55.2102 46.6486 55.217 46.632 55.217 46.6148V45.481L55.5524 45.1881L56.7015 46.655C56.7076 46.6627 56.7154 46.669 56.7243 46.6733C56.7331 46.6776 56.7429 46.6799 56.7528 46.6799H57.3685C57.3808 46.6799 57.3928 46.6765 57.4031 46.67C57.4135 46.6635 57.4218 46.6542 57.4272 46.6432C57.4325 46.6321 57.4346 46.6198 57.4333 46.6077C57.432 46.5955 57.4272 46.584 57.4196 46.5744L55.9992 44.7794L57.3163 43.449C57.3253 43.4398 57.3314 43.4282 57.3339 43.4156C57.3363 43.403 57.335 43.39 57.33 43.3781C57.3251 43.3663 57.3167 43.3561 57.3061 43.349C57.2954 43.3419 57.2828 43.3381 57.27 43.3381H56.6696C56.661 43.3381 56.6524 43.3398 56.6445 43.3432C56.6365 43.3465 56.6293 43.3514 56.6232 43.3575L55.5026 44.4944C55.5023 44.4947 55.5019 44.495 55.5016 44.4953C55.4428 44.5573 55.3713 44.6382 55.2866 44.7384C55.2865 44.7387 55.2863 44.7389 55.2862 44.7391C55.2488 44.7845 55.2301 44.8064 55.2009 44.8416C55.2032 44.7982 55.2046 44.7618 55.2075 44.7137C55.2075 44.7136 55.2075 44.7137 55.2075 44.7137C55.2136 44.5996 55.2169 44.5028 55.2169 44.4229V42.0552C55.2169 42.038 55.21 42.0214 55.1978 42.0092C55.1856 41.997 55.1691 41.9901 55.1518 41.9901L54.6438 41.9901ZM40.6203 43.2194C40.3087 43.2194 40.033 43.2906 39.7982 43.4342C39.7981 43.4342 39.7982 43.4341 39.7982 43.4342C39.5658 43.5775 39.3841 43.7838 39.2563 44.0474C39.2563 44.0473 39.2563 44.0474 39.2563 44.0474C39.1301 44.3098 39.0681 44.619 39.0681 44.9724C39.0681 45.3341 39.1365 45.6444 39.2762 45.9002C39.4152 46.1547 39.6123 46.3507 39.8632 46.4835C39.8634 46.4836 39.8636 46.4836 39.8638 46.4837C40.1165 46.6142 40.4107 46.6785 40.7433 46.6785C40.9743 46.6785 41.1753 46.6618 41.3471 46.6275C41.5201 46.5934 41.6938 46.5392 41.8679 46.4653C41.8797 46.4603 41.8897 46.4519 41.8968 46.4413C41.9038 46.4306 41.9076 46.4181 41.9076 46.4053V45.9776C41.9076 45.9669 41.9049 45.9564 41.8999 45.9469C41.8949 45.9375 41.8876 45.9295 41.8788 45.9235C41.8699 45.9176 41.8597 45.9139 41.8491 45.9128C41.8384 45.9117 41.8277 45.9133 41.8178 45.9173C41.6442 45.9884 41.4772 46.0419 41.317 46.0781C41.1587 46.1139 40.9746 46.1322 40.765 46.1322C40.4304 46.1322 40.1823 46.0392 40.0052 45.856C39.8398 45.6851 39.7496 45.4357 39.7333 45.1049H41.9933C42.0105 45.1048 42.0271 45.098 42.0393 45.0858C42.0515 45.0736 42.0584 45.057 42.0584 45.0398V44.7379C42.0584 44.4387 42.0024 44.1741 41.8884 43.9469C41.7744 43.7177 41.6078 43.5375 41.3921 43.4102C41.1754 43.2823 40.9167 43.2194 40.6203 43.2194ZM49.4323 43.2194C49.1012 43.2194 48.8112 43.2869 48.566 43.424C48.323 43.5591 48.1345 43.7585 48.0041 44.017C47.8732 44.2743 47.8093 44.5838 47.8093 44.9431C47.8093 45.2129 47.8471 45.4559 47.924 45.6713C47.924 45.6715 47.924 45.6716 47.9241 45.6718C48.0027 45.8861 48.113 46.069 48.2552 46.2186C48.2552 46.2188 48.2553 46.2189 48.2554 46.219C48.3991 46.3681 48.5695 46.4829 48.7643 46.5623C48.7646 46.5624 48.7649 46.5625 48.7652 46.5626C48.9622 46.64 49.1779 46.6785 49.4108 46.6785C49.6597 46.6785 49.8845 46.6403 50.0841 46.5627C50.084 46.5627 50.0842 46.5627 50.0841 46.5627C50.285 46.4833 50.4582 46.3683 50.6003 46.2186C50.7426 46.0688 50.851 45.8853 50.9255 45.6707C51.0002 45.4555 51.0369 45.2128 51.0369 44.9432C51.0369 44.5855 50.9706 44.2766 50.8354 44.0192C50.703 43.7613 50.5138 43.5613 50.2712 43.4243C50.0305 43.2873 49.7493 43.2194 49.4323 43.2194ZM31.1056 43.2253C30.8827 43.2253 30.6696 43.2524 30.4668 43.3066C30.2664 43.3603 30.088 43.425 29.9317 43.5014C29.9167 43.5088 29.9051 43.5216 29.8993 43.5372C29.8934 43.5529 29.8938 43.5701 29.9004 43.5855L30.0574 43.9547C30.0608 43.9627 30.0658 43.97 30.0721 43.976C30.0784 43.9821 30.0858 43.9868 30.0939 43.9899C30.1021 43.9931 30.1107 43.9945 30.1195 43.9942C30.1282 43.994 30.1367 43.9919 30.1446 43.9883C30.2855 43.9232 30.4344 43.8665 30.5918 43.8185C30.7455 43.7716 30.9074 43.7481 31.0778 43.7481C31.2951 43.7481 31.4536 43.8004 31.5642 43.8988C31.6693 43.9923 31.7301 44.1657 31.7301 44.4333V44.567L31.2106 44.588L31.2113 44.5879C30.6589 44.6037 30.2419 44.6972 29.9588 44.8795C29.6765 45.0614 29.5287 45.3342 29.5287 45.6727C29.5287 45.8948 29.5762 46.0842 29.6748 46.2356C29.6749 46.2359 29.6751 46.2361 29.6752 46.2363C29.7743 46.3851 29.9106 46.4976 30.0791 46.5706C30.079 46.5705 30.0792 46.5706 30.0791 46.5706C30.2485 46.6429 30.4405 46.6785 30.6529 46.6785C30.8523 46.6785 31.0222 46.6587 31.1638 46.6172C31.164 46.6172 31.1641 46.6171 31.1643 46.6171C31.3064 46.5741 31.4328 46.511 31.542 46.4278C31.5423 46.4276 31.5425 46.4275 31.5427 46.4274C31.6255 46.3628 31.7026 46.2772 31.7793 46.1905L31.8576 46.568C31.8607 46.5827 31.8687 46.5958 31.8803 46.6053C31.8919 46.6147 31.9064 46.6199 31.9213 46.6199H32.2939C32.3111 46.6199 32.3277 46.613 32.3399 46.6008C32.3521 46.5886 32.359 46.572 32.359 46.5548V44.3716C32.359 43.9834 32.2572 43.687 32.0445 43.4994C31.8329 43.3128 31.5171 43.2253 31.1056 43.2253ZM28.6858 43.2794C28.5178 43.2794 28.3624 43.3104 28.2221 43.373C28.222 43.3731 28.2222 43.373 28.2221 43.373C28.0861 43.4347 27.9651 43.5185 27.8611 43.6235C27.8611 43.6236 27.8612 43.6234 27.8611 43.6235C27.7924 43.6916 27.7401 43.7726 27.6848 43.8508L27.6423 43.3971C27.6408 43.3809 27.6333 43.3659 27.6213 43.355C27.6093 43.3441 27.5937 43.3381 27.5775 43.3381H27.1527C27.1354 43.3381 27.1189 43.3449 27.1067 43.3571C27.0945 43.3693 27.0876 43.3859 27.0876 43.4032V46.6148C27.0876 46.6321 27.0945 46.6486 27.1067 46.6608C27.1189 46.673 27.1354 46.6799 27.1527 46.6799H27.6667C27.684 46.6799 27.7005 46.673 27.7127 46.6608C27.725 46.6486 27.7318 46.6321 27.7318 46.6148V44.8918C27.7318 44.7324 27.7565 44.5902 27.8047 44.4637C27.8047 44.4636 27.8047 44.4638 27.8047 44.4637C27.8533 44.334 27.9196 44.2253 28.0035 44.1364C28.0037 44.1362 28.0039 44.1361 28.004 44.1359C28.0885 44.0445 28.1851 43.9761 28.2957 43.9289C28.2956 43.9289 28.2958 43.9289 28.2957 43.9289C28.4087 43.8797 28.528 43.855 28.655 43.855C28.7117 43.855 28.7729 43.8588 28.8385 43.8663C28.9039 43.8739 28.9627 43.8842 29.015 43.8971C29.0238 43.8993 29.033 43.8996 29.042 43.898C29.0509 43.8964 29.0595 43.893 29.067 43.8879C29.0746 43.8828 29.081 43.8762 29.0858 43.8685C29.0906 43.8607 29.0938 43.8521 29.0951 43.8431L29.1598 43.3918C29.1622 43.3754 29.1581 43.3586 29.1486 43.3451C29.139 43.3315 29.1246 43.322 29.1083 43.3187C29.0477 43.3064 28.9795 43.2973 28.9037 43.2913C28.8284 43.2834 28.7554 43.2794 28.6858 43.2794ZM34.907 43.2794C34.7575 43.2794 34.6153 43.2998 34.4815 43.3409C34.3476 43.382 34.2257 43.443 34.117 43.5237C34.0398 43.581 33.9751 43.6512 33.9165 43.7272L33.8598 43.3922C33.8572 43.3771 33.8493 43.3633 33.8376 43.3534C33.8258 43.3435 33.8109 43.3381 33.7955 43.3381H33.3831C33.3658 43.3381 33.3493 43.3449 33.3371 43.3571C33.3249 43.3693 33.318 43.3859 33.318 43.4032V46.6148C33.318 46.6321 33.3249 46.6486 33.3371 46.6608C33.3493 46.673 33.3658 46.6799 33.3831 46.6799H33.8941C33.9113 46.6799 33.9279 46.673 33.9401 46.6608C33.9523 46.6486 33.9592 46.6321 33.9592 46.6148V44.9152C33.9592 44.6684 33.9885 44.4636 34.0447 44.301C34.0447 44.3011 34.0448 44.301 34.0447 44.301C34.1025 44.1383 34.1917 44.0208 34.3144 43.9412C34.4361 43.8622 34.6024 43.8199 34.8177 43.8199C34.9677 43.8199 35.0864 43.8478 35.1765 43.8993C35.1769 43.8995 35.1773 43.8997 35.1777 43.8999C35.2701 43.9499 35.3369 44.0231 35.3832 44.127C35.3833 44.1273 35.3834 44.1276 35.3836 44.1279C35.4317 44.2318 35.4577 44.367 35.4577 44.5342V46.6148C35.4577 46.632 35.4646 46.6486 35.4768 46.6608C35.489 46.673 35.5055 46.6799 35.5228 46.6799H36.0307C36.048 46.6799 36.0645 46.673 36.0768 46.6608C36.089 46.6486 36.0958 46.632 36.0958 46.6148V44.8184C36.0958 44.4779 36.1679 44.2294 36.3026 44.0657C36.4354 43.9042 36.6492 43.82 36.9636 43.82C37.1833 43.82 37.3356 43.8796 37.4383 43.9945C37.4386 43.9948 37.4388 43.995 37.4391 43.9953C37.5434 44.1082 37.6004 44.2844 37.6004 44.5342V46.6148C37.6004 46.6321 37.6073 46.6486 37.6195 46.6608C37.6317 46.673 37.6483 46.6799 37.6655 46.6799H38.1704C38.1877 46.6799 38.2042 46.673 38.2164 46.6608C38.2286 46.6486 38.2355 46.6321 38.2355 46.6148V44.5108C38.2355 44.0926 38.1387 43.7769 37.9328 43.5764C37.7287 43.376 37.429 43.2794 37.0467 43.2794C36.8084 43.2794 36.5869 43.3273 36.3851 43.4232C36.385 43.4233 36.3852 43.4232 36.3851 43.4232C36.385 43.4233 36.3847 43.4234 36.3846 43.4235C36.2034 43.508 36.0605 43.6403 35.9476 43.8047C35.8628 43.6419 35.744 43.5088 35.5804 43.4245C35.3963 43.3266 35.171 43.2794 34.907 43.2794ZM53.3533 43.2794C53.1853 43.2794 53.0299 43.3104 52.8896 43.373C52.8895 43.3731 52.8897 43.373 52.8896 43.373C52.7536 43.4347 52.6326 43.5185 52.5286 43.6235C52.5286 43.6236 52.5287 43.6234 52.5286 43.6235C52.46 43.6916 52.4076 43.7725 52.3523 43.8507L52.3098 43.3971C52.3083 43.3809 52.3008 43.3659 52.2888 43.355C52.2768 43.3441 52.2612 43.3381 52.245 43.3381H51.8201C51.8028 43.3381 51.7862 43.3449 51.774 43.3571C51.7618 43.3693 51.755 43.3859 51.755 43.4032V46.6148C51.755 46.6321 51.7618 46.6486 51.774 46.6608C51.7862 46.673 51.8028 46.6799 51.8201 46.6799H52.3342C52.3515 46.6799 52.368 46.673 52.3803 46.6608C52.3925 46.6486 52.3993 46.6321 52.3993 46.6148V44.8918C52.3993 44.7324 52.424 44.5902 52.4722 44.4637C52.4722 44.4636 52.4722 44.4638 52.4722 44.4637C52.5208 44.334 52.587 44.2253 52.6709 44.1364C52.6711 44.1362 52.6712 44.1361 52.6714 44.1359C52.7558 44.0446 52.8525 43.9761 52.9632 43.9289C52.963 43.9289 52.9633 43.9289 52.9632 43.9289C53.0761 43.8797 53.1955 43.855 53.3225 43.855C53.3791 43.855 53.4402 43.8588 53.5058 43.8663C53.5713 43.8739 53.6302 43.8842 53.6824 43.8971C53.6913 43.8993 53.7005 43.8996 53.7094 43.898C53.7184 43.8964 53.7269 43.893 53.7345 43.8879C53.742 43.8828 53.7484 43.8762 53.7533 43.8685C53.7581 43.8607 53.7612 43.8521 53.7625 43.8431L53.8272 43.3918C53.8296 43.3754 53.8256 43.3586 53.816 43.3451C53.8065 43.3315 53.792 43.322 53.7757 43.3187C53.7151 43.3064 53.647 43.2973 53.5712 43.2913C53.4958 43.2834 53.4229 43.2794 53.3533 43.2794ZM42.5973 43.3382C42.5873 43.3382 42.5773 43.3405 42.5683 43.345C42.5592 43.3495 42.5514 43.3561 42.5453 43.3641C42.5393 43.3722 42.5351 43.3816 42.5333 43.3915C42.5315 43.4014 42.532 43.4116 42.5348 43.4213L43.4646 46.633C43.4685 46.6465 43.4767 46.6585 43.488 46.6669C43.4993 46.6754 43.513 46.68 43.5272 46.68H44.1029C44.1165 46.68 44.1298 46.6757 44.1408 46.6678C44.1519 46.6599 44.1602 46.6487 44.1645 46.6358L44.7922 44.7762C44.8214 44.695 44.8475 44.6142 44.8704 44.5349C44.8705 44.5347 44.8705 44.5345 44.8706 44.5343C44.8931 44.4544 44.9136 44.3784 44.9321 44.306L44.9325 44.3044C44.9463 44.2556 44.9569 44.2129 44.968 44.1692C44.9795 44.2128 44.9909 44.2552 45.0034 44.3044C45.0037 44.3051 45.0039 44.3058 45.0041 44.3065C45.0246 44.3768 45.0461 44.451 45.0687 44.529C45.0689 44.5297 45.0691 44.5303 45.0694 44.5309C45.094 44.6073 45.1197 44.6856 45.1464 44.7659L45.7466 46.6349C45.7509 46.648 45.7591 46.6594 45.7702 46.6675C45.7814 46.6757 45.7948 46.68 45.8085 46.68H46.4027C46.4168 46.68 46.4305 46.6755 46.4418 46.667C46.4531 46.6586 46.4613 46.6467 46.4652 46.6331L47.3981 43.4215C47.4009 43.4118 47.4014 43.4015 47.3996 43.3916C47.3978 43.3817 47.3937 43.3723 47.3876 43.3642C47.3816 43.3561 47.3737 43.3496 47.3647 43.3451C47.3556 43.3405 47.3457 43.3382 47.3355 43.3382H46.8153C46.8011 43.3382 46.7872 43.3429 46.7759 43.3515C46.7646 43.3601 46.7564 43.3722 46.7526 43.3859L46.26 45.1587C46.26 45.1589 46.2601 45.1586 46.26 45.1587C46.2272 45.28 46.1951 45.3998 46.1643 45.5172C46.1642 45.5175 46.1641 45.5178 46.164 45.5182C46.1362 45.6319 46.1114 45.7355 46.0893 45.831C46.0647 45.7355 46.0372 45.6374 46.0066 45.5364L46.0062 45.5353C45.9774 45.4334 45.9475 45.3354 45.9166 45.2412L45.3162 43.3832C45.312 43.3701 45.3037 43.3587 45.2926 43.3507C45.2815 43.3426 45.2681 43.3382 45.2543 43.3382H44.7033C44.6896 43.3382 44.6763 43.3425 44.6652 43.3505C44.6541 43.3585 44.6458 43.3697 44.6415 43.3827L44.0197 45.2435C44.0197 45.2434 44.0197 45.2435 44.0197 45.2435C43.9968 45.3127 43.9739 45.3869 43.9511 45.4657C43.9284 45.5424 43.9067 45.6201 43.8861 45.6988C43.8859 45.6992 43.8858 45.6996 43.8857 45.7C43.8729 45.7528 43.8613 45.8012 43.8496 45.8502C43.8481 45.8437 43.8477 45.8395 43.8462 45.8329C43.8255 45.7305 43.7997 45.6226 43.7689 45.5091L43.7685 45.5078C43.7398 45.3924 43.7091 45.2762 43.6762 45.1589L43.1898 43.386C43.186 43.3723 43.1778 43.3602 43.1665 43.3515C43.1551 43.3429 43.1412 43.3382 43.127 43.3382L42.5973 43.3382ZM40.6142 43.7481C40.7979 43.7481 40.9421 43.787 41.0522 43.8604C41.0524 43.8605 41.0526 43.8606 41.0528 43.8607C41.1648 43.9336 41.247 44.0348 41.3022 44.1706C41.3023 44.1709 41.3024 44.1713 41.3025 44.1716C41.3528 44.2896 41.3785 44.4295 41.3866 44.585H39.7537C39.7911 44.3297 39.8723 44.1257 40.0086 43.9828C40.1582 43.8261 40.3547 43.7481 40.6142 43.7481ZM49.4201 43.7599C49.6489 43.7599 49.8288 43.8084 49.9654 43.901C50.1038 43.9949 50.2058 44.1271 50.2736 44.3042C50.2735 44.3042 50.2736 44.3043 50.2736 44.3042C50.3418 44.4804 50.3771 44.6933 50.3771 44.9431C50.3771 45.1949 50.3418 45.4107 50.2735 45.591C50.2056 45.77 50.1028 45.904 49.9622 45.9998C49.9621 45.9999 49.962 46 49.9618 46C49.825 46.0946 49.6475 46.144 49.4231 46.144C49.1966 46.144 49.0181 46.0945 48.8814 46C48.7428 45.9043 48.6406 45.7701 48.5727 45.591C48.5043 45.4107 48.4692 45.1949 48.4692 44.9431C48.4692 44.5616 48.5484 44.2708 48.6995 44.0648C48.6996 44.0648 48.6997 44.0645 48.6998 44.0644C48.8507 43.8617 49.083 43.7599 49.4201 43.7599ZM31.7243 45.0401V45.2683C31.7243 45.5717 31.636 45.7856 31.4615 45.9303C31.2835 46.0778 31.0555 46.1526 30.7673 46.1526C30.5842 46.1526 30.4449 46.1115 30.3416 46.0339C30.242 45.959 30.192 45.8484 30.192 45.6786C30.192 45.4854 30.2646 45.3484 30.4217 45.2433C30.5749 45.1409 30.8625 45.0735 31.2777 45.0581C31.2776 45.0581 31.2777 45.058 31.2777 45.0581L31.7243 45.0401Z" fill="white"/>
</svg>
