<svg width="62" height="60" viewBox="0 0 62 60" fill="none" xmlns="http://www.w3.org/2000/svg">
<path d="M27.9323 7.19499C27.8998 10.78 28.7373 18.755 29.0448 21.53L7.64984 31.105C6.24984 28.7075 5.19984 25.345 4.55734 22.655L4.40734 22.7225C3.89484 22.9475 3.39234 22.855 3.17234 22.5025L3.14484 22.4575L1.09484 18.6925C0.949836 18.43 0.969836 18.0625 1.15484 17.7125C1.35708 17.3481 1.67074 17.0581 2.04984 16.885L26.6098 6.36749C26.9748 6.20749 27.3573 6.20999 27.6098 6.37749C27.8748 6.53249 27.9273 6.69749 27.9348 7.19499H27.9323ZM29.6323 24.695C30.9398 29.62 31.3198 30.725 31.7123 31.74L13.5548 40.99C11.8443 38.7673 10.3302 36.4 9.02984 33.915L29.6298 24.6925L29.6323 24.695ZM60.7123 46.66H60.7198C61.4273 47.665 60.6023 48.3025 60.3373 48.405L57.9698 49.33C58.0623 49.6425 58.0573 50.1275 57.4273 50.365L55.5873 51.0825C55.0148 51.3075 54.5923 50.935 54.5373 50.5825L54.4748 50.27C43.4073 54.73 34.6248 54.4825 27.7348 51.8875C22.7823 50.025 18.7948 46.93 15.6198 43.44L32.9898 34.59C34.7923 38.1675 36.9548 40.725 39.2623 42.535C44.4773 46.63 50.2998 46.815 53.7448 46.4425L53.6273 45.86C53.5898 45.6675 53.6448 45.5225 53.8423 45.4475L55.6773 44.7275C55.8244 44.6692 55.9861 44.6587 56.1395 44.6972C56.2929 44.7358 56.4303 44.8216 56.5323 44.9425L58.4023 44.2225C58.5493 44.1663 58.71 44.1568 58.8626 44.1953C59.0151 44.2338 59.1521 44.3183 59.2548 44.4375L60.7123 46.6625V46.66Z" fill="white"/>
</svg>
