<svg width="61" height="61" viewBox="0 0 61 61" fill="none" xmlns="http://www.w3.org/2000/svg">
<path d="M59.0149 27.9416L32.8174 1.74659C31.3074 0.239092 28.8624 0.239092 27.3474 1.74659L21.9199 7.18409L28.8199 14.0841C30.4324 13.5466 32.2674 13.9091 33.5424 15.1866C34.8324 16.4741 35.1874 18.3316 34.6374 19.9366L41.2824 26.5866C42.8949 26.0291 44.7499 26.3916 46.0324 27.6741C47.8349 29.4741 47.8349 32.3841 46.0324 34.1841C44.2349 35.9816 41.3299 35.9816 39.5324 34.1841C38.1849 32.8316 37.8474 30.8416 38.5224 29.1941L32.2999 23.0041V39.3166C32.7399 39.5316 33.1549 39.8241 33.5199 40.1866C35.3024 41.9891 35.3024 44.8941 33.5199 46.6866C31.7224 48.4891 28.7974 48.4891 26.9974 46.6866C25.1999 44.8891 25.1999 41.9891 26.9974 40.1916C27.4524 39.7416 27.9649 39.4016 28.5099 39.1766V22.7041C27.9674 22.4766 27.4499 22.1491 27.0099 21.7016C25.6474 20.3391 25.3199 18.3466 26.0199 16.6791L19.2399 9.86659L1.2749 27.8191C-0.225098 29.3316 -0.225098 31.7791 1.2749 33.2916L27.4749 59.4841C28.9849 60.9941 31.4299 60.9941 32.9399 59.4841L59.0149 33.4091C60.5274 31.9016 60.5274 29.4541 59.0149 27.9416Z" fill="white"/>
</svg>
