<svg width="61" height="60" viewBox="0 0 61 60" fill="none" xmlns="http://www.w3.org/2000/svg">
<path d="M30.1499 0.359131C13.5749 0.359131 0.149902 13.7916 0.149902 30.3591C0.149902 43.6166 8.7449 54.8591 20.6624 58.8216C22.1624 59.1041 22.7124 58.1766 22.7124 57.3791C22.7124 56.6666 22.6874 54.7791 22.6749 52.2791C14.3299 54.0891 12.5699 48.2541 12.5699 48.2541C11.2049 44.7916 9.2324 43.8666 9.2324 43.8666C6.5149 42.0066 9.4424 42.0441 9.4424 42.0441C12.4549 42.2541 14.0374 45.1341 14.0374 45.1341C16.7124 49.7216 21.0599 48.3966 22.7749 47.6291C23.0449 45.6891 23.8174 44.3666 24.6749 43.6166C18.0124 42.8666 11.0099 40.2866 11.0099 28.7916C11.0099 25.5166 12.1724 22.8416 14.0974 20.7416C13.7599 19.9841 12.7474 16.9341 14.3599 12.8016C14.3599 12.8016 16.8724 11.9966 22.6099 15.8766C25.0099 15.2091 27.5599 14.8791 30.1099 14.8641C32.6599 14.8791 35.2099 15.2091 37.6099 15.8766C43.3099 11.9966 45.8224 12.8016 45.8224 12.8016C47.4349 16.9341 46.4224 19.9841 46.1224 20.7416C48.0349 22.8416 49.1974 25.5166 49.1974 28.7916C49.1974 40.3166 42.1849 42.8541 35.5099 43.5916C36.5599 44.4916 37.5349 46.3316 37.5349 49.1416C37.5349 53.1566 37.4974 56.3816 37.4974 57.3566C37.4974 58.1441 38.0224 59.0816 39.5599 58.7816C51.5624 54.8466 60.1499 43.5966 60.1499 30.3591C60.1499 13.7916 46.7174 0.359131 30.1499 0.359131Z" fill="white"/>
</svg>
