<svg width="61" height="60" viewBox="0 0 61 60" fill="none" xmlns="http://www.w3.org/2000/svg">
<path d="M3.81286 14.675C-1.50214 22.31 -0.842142 32.24 3.22036 40.3475C3.31286 40.545 3.41536 40.7325 3.51536 40.92C3.57286 41.05 3.63786 41.17 3.70786 41.295C3.74036 41.3625 3.78536 41.435 3.82536 41.5C3.89036 41.63 3.96036 41.755 4.02786 41.88L4.42036 42.545C4.49536 42.6675 4.56286 42.7875 4.64536 42.91C4.78536 43.145 4.94536 43.3775 5.09036 43.6125C5.15536 43.7125 5.21536 43.8075 5.28786 43.905C5.53028 44.2867 5.78884 44.6579 6.06286 45.0175C6.25786 45.285 6.45286 45.545 6.66286 45.805C6.73036 45.9 6.80786 45.995 6.87786 46.0925L7.42786 46.765C7.49786 46.84 7.56536 46.9325 7.63786 47.0125C7.88286 47.3075 8.14286 47.595 8.40286 47.8875L8.41536 47.9025C8.73281 48.303 9.08867 48.6714 9.47786 49.0025C9.67786 49.21 9.87786 49.415 10.0904 49.615L10.3429 49.8575C10.6204 50.12 10.9004 50.38 11.1929 50.63C11.1979 50.63 11.2004 50.635 11.2054 50.6375L11.3479 50.7625C11.6029 50.985 11.8604 51.2075 12.1229 51.4125L12.4354 51.675C12.6479 51.845 12.8704 52.0075 13.0854 52.175L13.4279 52.4375C13.6604 52.6125 13.9079 52.785 14.1454 52.955C14.2329 53.0175 14.3204 53.08 14.4104 53.1375L14.4854 53.195L15.1854 53.6575L15.4854 53.8575C15.8554 54.0925 16.2204 54.3175 16.5854 54.5375C16.6879 54.5875 16.7954 54.6475 16.8929 54.7075C17.1629 54.8625 17.4429 55.02 17.7154 55.165C17.8654 55.25 18.0204 55.3225 18.1754 55.4C18.3629 55.505 18.5579 55.6075 18.7604 55.7125C18.8087 55.7273 18.8556 55.7465 18.9004 55.77C18.9829 55.8075 19.0604 55.8475 19.1404 55.8875C19.4404 56.0375 19.7529 56.1825 20.0779 56.325C20.1379 56.35 20.2029 56.375 20.2679 56.41C20.6279 56.5675 20.9904 56.7175 21.3629 56.865C21.4479 56.89 21.5379 56.9325 21.6254 56.965C21.9629 57.0925 22.3104 57.2225 22.6529 57.345L22.7779 57.39C23.1629 57.52 23.5404 57.645 23.9279 57.765C24.0179 57.79 24.1104 57.8225 24.2054 57.8475C24.6054 57.9675 24.9904 58.11 25.3904 58.19C51.0729 62.87 58.5354 42.7475 58.5354 42.7475C52.2654 50.9125 41.1404 53.065 30.6004 50.67C30.2104 50.58 29.8204 50.455 29.4254 50.34C28.9496 50.1988 28.477 50.0471 28.0079 49.885L27.8529 49.825C27.5129 49.71 27.1854 49.5825 26.8529 49.455C26.7624 49.4184 26.6707 49.385 26.5779 49.355C26.2079 49.205 25.8529 49.0525 25.4954 48.895C25.4179 48.87 25.3529 48.835 25.2754 48.805C24.9725 48.6659 24.6708 48.5243 24.3704 48.38C24.2803 48.3402 24.1919 48.2969 24.1054 48.25C23.8704 48.14 23.6354 48.0125 23.4054 47.8925C23.2474 47.8167 23.0915 47.7367 22.9379 47.6525C22.6529 47.5025 22.3704 47.34 22.0879 47.185C22.0029 47.125 21.9054 47.075 21.8079 47.02C21.4384 46.801 21.0725 46.5759 20.7104 46.345C20.6099 46.2834 20.5115 46.2183 20.4154 46.15C20.15 45.9857 19.8899 45.8131 19.6354 45.6325C19.5479 45.575 19.4679 45.5125 19.3779 45.45C19.1287 45.2781 18.8828 45.1014 18.6404 44.92C18.5354 44.835 18.4229 44.755 18.3104 44.67C18.0904 44.495 17.8679 44.3325 17.6479 44.15L17.3529 43.9125C17.0689 43.685 16.7897 43.4516 16.5154 43.2125C16.487 43.1839 16.456 43.1579 16.4229 43.135L15.5554 42.345L15.3054 42.11C15.1004 41.9 14.8904 41.7 14.6804 41.495L14.4354 41.245C14.1713 40.9823 13.9137 40.713 13.6629 40.4375L13.6254 40.3975C13.3604 40.1075 13.1004 39.81 12.8429 39.51C12.7754 39.435 12.7104 39.35 12.6429 39.2675L12.0754 38.575C11.7871 38.2046 11.5037 37.8304 11.2254 37.4525C5.38036 29.475 3.26536 18.46 7.94286 9.42754M20.3004 8.24504C16.4504 13.7725 16.6654 21.1675 19.6654 27.015C20.1611 27.999 20.7276 28.9456 21.3604 29.8475C21.9354 30.6725 22.5704 31.65 23.3429 32.3175C23.6104 32.6225 23.9004 32.9175 24.2029 33.2175L24.4279 33.4425C24.7129 33.7175 25.0079 33.985 25.3029 34.255L25.3429 34.2875C25.68 34.5819 26.0252 34.867 26.3779 35.1425C26.4629 35.2 26.5354 35.2675 26.6179 35.325C26.9679 35.595 27.3229 35.855 27.6879 36.115L27.7254 36.1375C27.8804 36.25 28.0454 36.3525 28.2204 36.4625C28.2904 36.5075 28.3704 36.5675 28.4454 36.6125C28.7104 36.7825 28.9704 36.9425 29.2404 37.105C29.2829 37.1225 29.3204 37.145 29.3604 37.1625C29.5854 37.3 29.8304 37.4325 30.0654 37.555C30.1479 37.605 30.2279 37.6425 30.3154 37.69C30.4804 37.7725 30.6454 37.86 30.8079 37.945L30.8879 37.98C31.2254 38.1475 31.5704 38.3025 31.9079 38.455C31.9929 38.49 32.0654 38.5175 32.1379 38.5525C32.4154 38.6725 32.6979 38.7875 32.9779 38.895C33.1029 38.9375 33.2204 38.9875 33.3379 39.025C33.5929 39.12 33.8629 39.2075 34.1129 39.295L34.4629 39.4075C34.8304 39.52 35.2004 39.6675 35.5854 39.7325C55.4104 43.015 60.0004 27.745 60.0004 27.745C55.8679 33.695 47.8704 36.5275 39.3479 34.315C38.9706 34.2176 38.5963 34.1092 38.2254 33.99C38.1054 33.955 38.0004 33.9175 37.8854 33.8825C37.6254 33.7925 37.3579 33.7075 37.1054 33.61L36.7454 33.475C36.4629 33.3625 36.1779 33.2575 35.9054 33.1375C35.8204 33.1 35.7429 33.075 35.6779 33.0375C35.3279 32.88 34.9754 32.725 34.6329 32.5575L34.1179 32.29L33.8204 32.14C33.5962 32.021 33.3753 31.8959 33.1579 31.765C33.1046 31.7389 33.0528 31.7097 33.0029 31.6775C32.7379 31.5125 32.4604 31.3525 32.2079 31.1825C32.1229 31.135 32.0454 31.0775 31.9654 31.0275L31.4454 30.6875C31.0854 30.4375 30.7329 30.1675 30.3754 29.905C30.2954 29.8325 30.2179 29.7725 30.1404 29.7075C26.3929 26.7625 23.4379 22.7325 22.0354 18.175C20.5604 13.4325 20.8854 8.11754 23.4354 3.80004M34.1654 3.43254C31.8929 6.76754 31.6754 10.9075 33.2404 14.5825C34.9029 18.49 38.3004 21.5575 42.2604 23.0075C42.4229 23.07 42.5804 23.1225 42.7504 23.1825L42.9704 23.25C43.2004 23.325 43.4329 23.4075 43.6704 23.46C54.6229 25.5725 57.5879 17.835 58.3854 16.7C55.7779 20.445 51.4054 21.3425 46.0404 20.0375C45.6033 19.9283 45.1726 19.7947 44.7504 19.6375C44.2246 19.4531 43.7089 19.2412 43.2054 19.0025C42.2523 18.5415 41.3464 17.9889 40.5004 17.3525C35.6954 13.71 32.7179 6.76254 35.8529 1.10254" fill="white"/>
</svg>
