<svg width="61" height="61" viewBox="0 0 61 61" fill="none" xmlns="http://www.w3.org/2000/svg">
<path d="M31.41 0.616577C31.0225 0.616577 30.6225 0.636577 30.21 0.669077C19.645 1.50158 22.4475 12.6866 22.285 16.4141C22.095 19.1441 21.535 21.2966 19.66 23.9641C17.4475 26.5916 14.3425 30.8391 12.87 35.2666C12.175 37.3466 11.845 39.4766 12.1525 41.4891C12.0385 41.5813 11.9449 41.6963 11.8775 41.8266C11.2275 42.4966 10.7525 43.3266 10.22 43.9241C9.72253 44.4216 9.00753 44.5916 8.22753 44.9241C7.44503 45.2641 6.58253 45.5966 6.06753 46.6241C5.84253 47.0966 5.72753 47.6091 5.73753 48.1291C5.73753 48.6266 5.80503 49.1291 5.87503 49.4691C6.02003 50.4666 6.16503 51.2891 5.97503 51.8941C5.35253 53.5941 5.27503 54.7566 5.71003 55.6041C6.14503 56.4391 7.04753 56.7791 8.06003 57.1066C10.085 57.6066 12.835 57.4441 14.995 58.6066C17.31 59.7716 19.66 60.2816 21.535 59.7816C22.85 59.4916 23.96 58.6216 24.555 57.4166C26.0225 57.4091 27.63 56.7441 30.205 56.5816C31.9525 56.4366 34.14 57.2491 36.6475 57.0816C36.71 57.4166 36.805 57.5766 36.9325 57.9141L36.94 57.9216C37.9175 59.8666 39.7225 60.7516 41.65 60.5991C43.5775 60.4491 45.63 59.2591 47.2925 57.3341C48.87 55.4216 51.5 54.6241 53.2375 53.5766C54.1075 53.0791 54.81 52.4041 54.86 51.4441C54.9175 50.4441 54.36 49.4166 53.075 48.0041V47.7616L53.0675 47.7541C52.6425 47.2541 52.4425 46.4166 52.2225 45.4391C52.01 44.4366 51.7675 43.4741 50.9925 42.8241H50.985C50.8375 42.6891 50.6775 42.6566 50.515 42.4866C50.3752 42.389 50.2104 42.3334 50.04 42.3266C51.1175 39.1316 50.7 35.9516 49.6075 33.0916C48.275 29.5666 45.945 26.4966 44.17 24.3841C42.18 21.8716 40.23 19.4916 40.27 15.9641C40.335 10.5841 40.86 0.631577 31.41 0.616577ZM32.7325 9.12908H32.765C33.2975 9.12908 33.755 9.28408 34.225 9.62408C34.7 9.96158 35.05 10.4541 35.32 10.9566C35.5825 11.6041 35.715 12.1041 35.735 12.7666C35.735 12.7166 35.75 12.6666 35.75 12.6166V12.8791C35.7445 12.8621 35.7412 12.8444 35.74 12.8266L35.73 12.7666C35.725 13.3741 35.5974 13.9744 35.355 14.5316C35.2383 14.845 35.0568 15.1304 34.8225 15.3691C34.7517 15.3291 34.6782 15.294 34.6025 15.2641C34.3425 15.1516 34.1075 15.1041 33.8925 14.9316C33.7144 14.8606 33.5303 14.8054 33.3425 14.7666C33.4675 14.6166 33.7075 14.4341 33.8 14.2716C33.9325 13.9516 34.005 13.6116 34.02 13.2666V13.2166C34.0257 12.877 33.9741 12.539 33.8675 12.2166C33.755 11.8816 33.615 11.7166 33.41 11.3841C33.2 11.2191 32.9925 11.0541 32.7425 11.0541H32.7025C32.47 11.0541 32.2625 11.1291 32.0475 11.3841C31.8101 11.6156 31.634 11.9026 31.535 12.2191C31.4022 12.5367 31.3261 12.8752 31.31 13.2191V13.2666C31.315 13.4891 31.33 13.7141 31.36 13.9341C30.8775 13.7666 30.265 13.5966 29.8425 13.4291C29.8173 13.2635 29.8023 13.0965 29.7975 12.9291V12.8791C29.7779 12.2191 29.906 11.5631 30.1725 10.9591C30.3775 10.4091 30.7525 9.94408 31.2475 9.62658C31.6749 9.30267 32.1963 9.12961 32.7325 9.12908ZM25.3275 9.27658H25.4175C25.7725 9.27658 26.0925 9.39658 26.415 9.61408C26.78 9.93658 27.075 10.3341 27.275 10.7766C27.5 11.2741 27.625 11.7766 27.6575 12.4441V12.4541C27.675 12.7891 27.6725 12.9541 27.6525 13.1191V13.3191C27.5775 13.3366 27.5125 13.3641 27.445 13.3791C27.065 13.5166 26.76 13.7166 26.4625 13.8791C26.4925 13.6541 26.495 13.4291 26.47 13.2116V13.1741C26.44 12.8416 26.37 12.6741 26.265 12.3416C26.1871 12.0868 26.044 11.8567 25.85 11.6741C25.7884 11.6181 25.7162 11.575 25.6376 11.5475C25.559 11.52 25.4756 11.5087 25.3925 11.5141H25.34C25.1625 11.5291 25.015 11.6141 24.875 11.8441C24.7155 12.0376 24.6118 12.271 24.575 12.5191C24.5075 12.7885 24.488 13.0678 24.5175 13.3441V13.3816C24.5475 13.7191 24.61 13.8816 24.7175 14.2166C24.8325 14.5516 24.9625 14.7166 25.1325 14.8866C25.1575 14.9091 25.1825 14.9316 25.2175 14.9466C25.0425 15.0891 24.925 15.1216 24.7775 15.2866C24.684 15.3693 24.5715 15.4277 24.45 15.4566C24.1902 15.1437 23.96 14.8072 23.7625 14.4516C23.5262 13.9262 23.3945 13.3598 23.375 12.7841C23.3336 12.2197 23.4015 11.6527 23.575 11.1141C23.7127 10.6229 23.954 10.1668 24.2825 9.77658C24.6025 9.44408 24.9325 9.27658 25.3275 9.27658ZM28.7525 13.5416C29.5825 13.5416 30.585 13.7041 31.7925 14.5391C32.525 15.0391 33.1 15.2116 34.4225 15.7091H34.43C35.0675 16.0491 35.4425 16.3741 35.625 16.7066V16.3791C35.7147 16.5609 35.7647 16.7597 35.7716 16.9623C35.7785 17.1649 35.7422 17.3666 35.665 17.5541C35.3575 18.3291 34.375 19.1616 33.0075 19.6591V19.6641C32.3375 20.0016 31.755 20.4966 31.07 20.8266C30.38 21.1641 29.6 21.5566 28.54 21.4941C28.1592 21.5138 27.7784 21.4568 27.42 21.3266C27.1431 21.1759 26.8744 21.0107 26.615 20.8316C26.1275 20.4941 25.7075 20.0016 25.085 19.6691V19.6566H25.0725C24.0725 19.0416 23.5325 18.3766 23.3575 17.8816C23.1825 17.2116 23.345 16.7066 23.84 16.3816C24.4 16.0441 24.79 15.7041 25.0475 15.5416C25.3075 15.3566 25.405 15.2866 25.4875 15.2141H25.4925V15.2066C25.915 14.7016 26.5825 14.0316 27.59 13.7041C27.9375 13.6141 28.325 13.5416 28.755 13.5416H28.7525ZM35.7525 18.8966C36.6475 22.4391 38.7425 27.5841 40.09 30.0791C40.805 31.4141 42.2275 34.2266 42.845 37.6391C43.235 37.6266 43.67 37.6841 44.1275 37.7991C45.7425 33.6216 42.7625 29.1316 41.405 27.8841C40.855 27.3841 40.825 27.0466 41.0975 27.0466C42.5725 28.3816 44.51 30.9766 45.2125 33.9391C45.5375 35.2766 45.6125 36.6991 45.265 38.1141C45.4325 38.1841 45.6025 38.2641 45.7775 38.2816C48.3575 39.6166 49.31 40.6266 48.8525 42.1241V42.0166C48.7025 42.0091 48.5525 42.0166 48.4025 42.0166H48.3625C48.74 40.8491 47.9075 39.9541 45.7 38.9566C43.4125 37.9566 41.585 38.1166 41.275 40.1191C41.255 40.2266 41.2425 40.2841 41.23 40.4566C41.06 40.5141 40.8825 40.5891 40.7075 40.6166C39.6325 41.2866 39.0525 42.2891 38.725 43.5841C38.4 44.9166 38.3 46.4741 38.2125 48.2566V48.2641C38.1625 49.0991 37.7875 50.3591 37.415 51.6391C33.665 54.3191 28.465 55.4841 24.045 52.4741C23.7676 51.9892 23.43 51.5415 23.04 51.1416C22.8537 50.8313 22.622 50.5507 22.3525 50.3091C22.8075 50.3091 23.1975 50.2341 23.515 50.1416C23.8745 49.9748 24.1558 49.6757 24.3 49.3066C24.57 48.6391 24.3 47.5641 23.4375 46.3991C22.575 45.2316 21.11 43.9116 18.9675 42.5966C17.3925 41.5966 16.5025 40.4216 16.0925 39.1066C15.68 37.7716 15.735 36.3941 16.055 34.9941C16.6675 32.3191 18.2375 29.7191 19.24 28.0866C19.5075 27.9241 19.3325 28.4241 18.22 30.5216C17.23 32.3991 15.37 36.7641 17.915 40.1566C18.0112 37.6813 18.5594 35.2445 19.5325 32.9666C20.9425 29.7716 23.89 24.2066 24.1225 19.7966C24.2425 19.8866 24.665 20.1341 24.845 20.3016C25.39 20.6341 25.795 21.1341 26.32 21.4641C26.845 21.9666 27.5125 22.3016 28.51 22.3016C28.6075 22.3091 28.6975 22.3166 28.785 22.3166C29.815 22.3166 30.61 21.9816 31.2775 21.6466C32.0025 21.3116 32.5775 20.8116 33.1275 20.6466H33.14C34.3075 20.3091 35.2275 19.6416 35.75 18.8966H35.7525ZM41.215 41.2916C41.3075 42.7916 42.0725 44.4041 43.42 44.7341C44.89 45.0691 47.005 43.9016 47.8975 42.8216L48.425 42.7966C49.2125 42.7791 49.8675 42.8216 50.5425 43.4666L50.55 43.4741C51.07 43.9716 51.3125 44.7991 51.5275 45.6641C51.74 46.6641 51.9125 47.6141 52.55 48.3291C53.765 49.6466 54.1625 50.5941 54.14 51.1791L54.1475 51.1616V51.2066L54.14 51.1791C54.1025 51.8341 53.6775 52.1666 52.895 52.6641C51.32 53.6666 48.53 54.4441 46.7525 56.5891C45.2075 58.4316 43.3275 59.4391 41.6625 59.5666C40.0025 59.6991 38.57 59.0666 37.7275 57.3216L37.715 57.3141C37.19 56.3141 37.415 54.7516 37.855 53.0891C38.295 51.4191 38.925 49.7291 39.0125 48.3466C39.105 46.5616 39.2025 45.0091 39.5 43.8116C39.8 42.6491 40.27 41.8191 41.1025 41.3516L41.215 41.2966V41.2916ZM14.18 41.4141H14.205C14.3375 41.4141 14.4675 41.4266 14.5975 41.4491C15.5375 41.5866 16.3625 42.2816 17.155 43.3291L19.43 47.4891L19.4375 47.4966C20.045 48.8291 21.3225 50.1566 22.41 51.5891C23.495 53.0841 24.335 54.4166 24.2325 55.5141V55.5291C24.09 57.3891 23.0325 58.3991 21.42 58.7641C19.8075 59.1016 17.62 58.7691 15.4325 57.6041C13.0125 56.2641 10.1375 56.4316 8.29003 56.0991C7.36753 55.9341 6.76503 55.5991 6.48253 55.0991C6.20753 54.5991 6.20003 53.5941 6.79003 52.0241V52.0141L6.79503 52.0066C7.08753 51.1716 6.87003 50.1266 6.72753 49.2116C6.59003 48.2091 6.52003 47.4366 6.83503 46.8616C7.23503 46.0266 7.82503 45.8616 8.56003 45.5291C9.29503 45.1916 10.16 45.0241 10.8475 44.3541H10.8525V44.3491C11.4925 43.6791 11.965 42.8466 12.5225 42.2541C12.9975 41.7516 13.4725 41.4141 14.18 41.4141ZM32.0775 18.7291C30.99 19.2316 29.715 20.0666 28.3575 20.0666C27.0025 20.0666 25.9325 19.3991 25.1575 18.9016C24.7725 18.5666 24.4575 18.2316 24.225 18.0641C23.815 17.7291 23.865 17.2316 24.04 17.2316C24.3125 17.2716 24.3625 17.5666 24.5375 17.7316C24.7775 17.8966 25.075 18.2316 25.4375 18.5641C26.1675 19.0641 27.1375 19.7316 28.355 19.7316C29.5675 19.7316 30.9875 19.0641 31.85 18.5666C32.3375 18.2291 32.9625 17.7316 33.47 17.3991C33.86 17.0591 33.8425 16.7316 34.1675 16.7316C34.4875 16.7716 34.2525 17.0666 33.8 17.5616C33.2455 17.9809 32.6697 18.3715 32.075 18.7316L32.0775 18.7291ZM29.3725 14.7716V14.7166C29.3575 14.6666 29.405 14.6116 29.445 14.5916C29.63 14.4841 29.895 14.5241 30.095 14.6016C30.2525 14.6016 30.495 14.7691 30.47 14.9391C30.455 15.0616 30.2575 15.1041 30.1325 15.1041C29.995 15.1041 29.9025 14.9966 29.78 14.9341C29.65 14.8891 29.415 14.9141 29.3725 14.7716ZM27.995 14.7716C27.945 14.9166 27.7125 14.8941 27.58 14.9366C27.4625 14.9991 27.365 15.1066 27.23 15.1066C27.105 15.1066 26.905 15.0566 26.89 14.9366C26.865 14.7716 27.11 14.6041 27.265 14.6041C27.465 14.5266 27.725 14.4866 27.9125 14.5916C27.96 14.6141 28.0025 14.6666 27.9875 14.7166V14.7666H27.995V14.7716Z" fill="white"/>
</svg>
