<svg width="61" height="60" viewBox="0 0 61 60" fill="none" xmlns="http://www.w3.org/2000/svg">
<path d="M41.1624 13.7525C40.8749 13.7525 40.6799 13.7875 40.4774 13.835V13.8675H40.5124C40.6474 14.1275 40.8774 14.3175 41.0474 14.55C41.1824 14.8175 41.2974 15.085 41.4324 15.35L41.4674 15.3125C41.7024 15.1475 41.8174 14.8825 41.8174 14.48C41.7174 14.3625 41.7024 14.245 41.6174 14.13C41.5174 13.9625 41.3024 13.88 41.1674 13.7475L41.1624 13.7525ZM14.5749 46.7375H12.2574C12.1922 43.0545 11.967 39.376 11.5824 35.7125H11.5624L8.0374 46.7375H6.2749L2.7749 35.7125H2.7499C2.47614 39.3818 2.31356 43.0584 2.2624 46.7375H0.149902C0.287402 41.8225 0.629902 37.2125 1.1749 32.9125H4.0499L7.3874 43.0725H7.4074L10.7749 32.9125H13.5124C14.1174 37.95 14.4724 42.5625 14.5824 46.7375H14.5749ZM24.6174 36.5375C23.6724 41.65 22.4274 45.37 20.8874 47.6875C19.6824 49.4775 18.3624 50.37 16.9299 50.37C16.5474 50.37 16.0799 50.255 15.5149 50.025V48.79C15.7899 48.8325 16.1149 48.855 16.4799 48.855C17.1499 48.855 17.6874 48.6675 18.0974 48.3C18.5899 47.85 18.8349 47.345 18.8349 46.7875C18.8349 46.4 18.6424 45.6125 18.2599 44.4275L15.7249 36.5375H17.9999L19.8174 42.4375C20.2274 43.7775 20.3999 44.7125 20.3299 45.245C21.3299 42.585 22.0249 39.6775 22.4174 36.5375H24.6174ZM55.4299 46.7375H48.8549V32.9125H51.0674V45.0375H55.4299V46.7375ZM47.1299 47.075L44.5899 45.825C44.8149 45.635 45.0324 45.43 45.2274 45.2C46.3099 43.935 46.8474 42.055 46.8474 39.5675C46.8474 34.9925 45.0524 32.7025 41.4599 32.7025C39.6999 32.7025 38.3249 33.2825 37.3349 34.445C36.2599 35.715 35.7199 37.585 35.7199 40.0575C35.7199 42.4875 36.1949 44.2725 37.1549 45.4075C38.0299 46.4325 39.3474 46.945 41.1124 46.945C41.7724 46.945 42.3774 46.8625 42.9249 46.7L46.2374 48.63L47.1374 47.075H47.1299ZM38.8999 43.97C38.3374 43.07 38.0574 41.62 38.0574 39.63C38.0574 36.1475 39.1174 34.405 41.2324 34.405C42.3399 34.405 43.1574 34.8225 43.6749 35.655C44.2349 36.56 44.5149 37.995 44.5149 39.9625C44.5149 43.4725 43.4549 45.2325 41.3399 45.2325C40.2274 45.2325 39.4149 44.815 38.8949 43.9825L38.8999 43.97ZM34.7549 42.9075C34.7549 44.0825 34.3249 45.0475 33.4649 45.7975C32.6049 46.5475 31.4574 46.9225 30.0049 46.9225C28.6474 46.9225 27.3449 46.4925 26.0724 45.635L26.6649 44.445C27.7599 44.995 28.7474 45.265 29.6399 45.265C30.4699 45.265 31.1224 45.0825 31.5974 44.715C31.8348 44.536 32.0265 44.3035 32.1569 44.0362C32.2872 43.769 32.3525 43.4748 32.3474 43.1775C32.3474 42.3525 31.7724 41.6525 30.7274 41.065C29.7574 40.5325 27.8199 39.4225 27.8199 39.4225C26.7649 38.655 26.2399 37.8325 26.2399 36.48C26.2399 35.355 26.6324 34.455 27.4149 33.7675C28.2024 33.0725 29.2149 32.73 30.4649 32.73C31.7449 32.73 32.9149 33.07 33.9649 33.755L33.4324 34.945C32.5934 34.5765 31.6887 34.3809 30.7724 34.37C30.0649 34.37 29.5174 34.54 29.1374 34.885C28.9446 35.0448 28.7891 35.2449 28.682 35.4712C28.5749 35.6975 28.5187 35.9446 28.5174 36.195C28.5174 37.015 29.1024 37.72 30.1824 38.32C31.1649 38.8575 33.1499 39.995 33.1499 39.995C34.2324 40.7575 34.7699 41.57 34.7699 42.915L34.7549 42.9075ZM58.2099 28.2775C56.8724 28.2425 55.8349 28.3775 54.9674 28.7475C54.7174 28.8475 54.3174 28.8475 54.2824 29.165C54.4199 29.2975 54.4399 29.515 54.5574 29.7C54.7574 30.035 55.1024 30.4825 55.4224 30.7175C55.7724 30.9925 56.1224 31.2575 56.4899 31.4925C57.1399 31.8925 57.8774 32.13 58.5149 32.5325C58.8774 32.7675 59.2474 33.065 59.6149 33.315C59.7974 33.44 59.9149 33.665 60.1499 33.745V33.695C60.0349 33.545 59.9999 33.3275 59.8874 33.16C59.7199 32.9925 59.5524 32.8425 59.3874 32.6775C58.8966 32.0307 58.3108 31.4618 57.6499 30.99C57.1149 30.625 55.9449 30.115 55.7249 29.5025L55.6924 29.4675C56.0574 29.435 56.4924 29.3025 56.8424 29.2025C57.4099 29.0525 57.9299 29.085 58.5174 28.9375C58.7824 28.87 59.0499 28.7875 59.3174 28.7025V28.5525C59.0174 28.2525 58.7924 27.845 58.4824 27.565C57.6171 26.8087 56.6943 26.1208 55.7224 25.5075C55.1974 25.1725 54.5324 24.9575 53.9799 24.6725C53.7799 24.5725 53.4449 24.5225 53.3299 24.355C53.0299 23.99 52.8549 23.505 52.6424 23.07C52.1515 22.1177 51.6954 21.1479 51.2749 20.1625C50.9749 19.5075 50.7924 18.855 50.4249 18.255C48.6999 15.4125 46.8324 13.69 43.9599 12.005C43.3424 11.655 42.6024 11.505 41.8199 11.32C41.4024 11.3 40.9849 11.27 40.5699 11.2525C40.2949 11.135 40.0299 10.8175 39.7949 10.665C38.8449 10.065 36.3849 8.76501 35.6849 10.485C35.2349 11.57 36.3524 12.64 36.7399 13.19C37.0274 13.5725 37.3899 14.01 37.5899 14.44C37.7074 14.73 37.7399 15.0275 37.8574 15.33C38.1224 16.065 38.3749 16.885 38.7249 17.5725C38.9074 17.9225 39.1074 18.29 39.3424 18.605C39.4774 18.7875 39.7074 18.8725 39.7599 19.1725C39.5249 19.5125 39.5099 20.0075 39.3749 20.4225C38.7749 22.315 39.0099 24.655 39.8599 26.0475C40.1274 26.4625 40.7649 27.3825 41.6174 27.03C42.3674 26.73 42.2024 25.78 42.4174 24.9425C42.4674 24.7425 42.4349 24.61 42.5374 24.475V24.5125C42.7724 24.9825 43.0074 25.43 43.2224 25.9C43.7374 26.72 44.6374 27.57 45.3899 28.1375C45.7899 28.4375 46.1074 28.9575 46.6074 29.1425V29.0925H46.5699C46.4624 28.9475 46.3199 28.8775 46.1849 28.76C45.8679 28.4497 45.5754 28.1154 45.3099 27.76C44.6055 26.7976 43.9809 25.7792 43.4424 24.715C43.1674 24.19 42.9374 23.625 42.7174 23.1075C42.6174 22.9075 42.6174 22.6075 42.4499 22.5075C42.1999 22.8725 41.8324 23.19 41.6499 23.64C41.3324 24.36 41.2999 25.245 41.1799 26.165C41.1124 26.1825 41.1449 26.165 41.1124 26.2C40.5774 26.07 40.3949 25.515 40.1949 25.05C39.6949 23.8625 39.6124 21.955 40.0449 20.5875C40.1624 20.2375 40.6624 19.1325 40.4624 18.7975C40.3574 18.48 40.0274 18.2975 39.8449 18.04C39.6101 17.7049 39.4092 17.3473 39.2449 16.9725C38.8449 16.0375 38.6449 15.0025 38.2099 14.0675C38.0099 13.635 37.6599 13.1825 37.3749 12.785C37.0574 12.335 36.7074 12.0175 36.4549 11.485C36.3724 11.3025 36.2549 11 36.3874 10.8C36.4224 10.665 36.4924 10.6125 36.6224 10.575C36.8424 10.395 37.4599 10.63 37.6774 10.73C38.2949 10.98 38.8149 11.215 39.3324 11.565C39.5674 11.73 39.8199 12.0475 40.1199 12.13H40.4699C41.0049 12.2475 41.6074 12.165 42.1074 12.3125C42.9949 12.5975 43.7949 13.0125 44.5124 13.4625C46.7232 14.8748 48.5215 16.8464 49.7249 19.1775C49.9249 19.5625 50.0124 19.915 50.1949 20.315C50.5449 21.14 50.9774 21.9725 51.3324 22.77C51.6824 23.5575 52.0199 24.36 52.5224 25.0125C52.7724 25.3625 53.7774 25.545 54.2274 25.7275C54.5599 25.8775 55.0774 26.015 55.3774 26.1975C55.9524 26.5475 56.5124 26.9475 57.0524 27.3325C57.3274 27.5225 58.1599 27.94 58.2099 28.2775Z" fill="white"/>
</svg>
