<svg width="62" height="60" viewBox="0 0 62 60" fill="none" xmlns="http://www.w3.org/2000/svg">
<path d="M36.625 0.45L38.875 0.95L40.7 1.6L42.175 2.35L43.3 3.15L44.15 4L44.775 4.85L45.175 5.675L45.425 6.425L45.525 7.075L45.575 7.575L45.55 7.9V21.25L45.425 22.825L45.1 24.2L44.575 25.35L43.925 26.3L43.175 27.075L42.35 27.7L41.475 28.175L40.6 28.525L39.775 28.775L39.025 28.95L38.375 29.05L37.85 29.1H22.925L21.2 29.225L19.725 29.575L18.475 30.125L17.45 30.8L16.625 31.6L15.95 32.475L15.45 33.375L15.075 34.3L14.825 35.175L14.65 35.975L14.55 36.65L14.5 37.175V44.825H8.92498L8.39998 44.75L7.69998 44.575L6.89998 44.275L6.02498 43.825L5.12498 43.175L4.22498 42.275L3.34998 41.125L2.54998 39.65L1.84998 37.825L1.32498 35.625L0.974976 33L0.849976 29.925L0.999976 26.875L1.39998 24.275L1.99998 22.1L2.79998 20.325L3.69998 18.9L4.69998 17.8L5.74998 16.975L6.79998 16.375L7.79998 15.975L8.69998 15.725L9.49998 15.6L10.1 15.575H10.5L10.65 15.6H31.05V13.525H16.45L16.425 6.65L16.375 5.725L16.5 4.875L16.775 4.1L17.2 3.4L17.825 2.75L18.6 2.175L19.55 1.675L20.65 1.225L21.925 0.85L23.375 0.55L24.975 0.3L26.75 0.15L28.675 0.05L30.775 0L33.95 0.125L36.625 0.45ZM20.875 5.4L20.3 6.225L20.1 7.25L20.3 8.275L20.875 9.125L21.7 9.675L22.725 9.9L23.75 9.675L24.575 9.125L25.15 8.275L25.35 7.25L25.15 6.225L24.575 5.4L23.75 4.85L22.725 4.625L21.7 4.85L20.875 5.4ZM53.6 15.275L54.3 15.425L55.1 15.725L55.975 16.175L56.875 16.85L57.775 17.725L58.65 18.9L59.45 20.375L60.15 22.2L60.675 24.4L61.025 27L61.15 30.075L61 33.15L60.6 35.75L60 37.9L59.2 39.675L58.3 41.1L57.3 42.225L56.25 43.05L55.2 43.65L54.2 44.05L53.3 44.275L52.5 44.4L51.9 44.45L51.5 44.425H30.95V46.475H45.55L45.575 53.375L45.625 54.275L45.5 55.125L45.225 55.9L44.8 56.625L44.175 57.25L43.4 57.85L42.45 58.35L41.35 58.775L40.075 59.15L38.625 59.475L37.025 59.7L35.25 59.875L33.325 59.975L31.225 60L28.05 59.9L25.375 59.55L23.125 59.05L21.3 58.425L19.825 57.675L18.7 56.85L17.85 56L17.225 55.15L16.825 54.325L16.575 53.575L16.475 52.95L16.425 52.45L16.45 52.125V38.775L16.575 37.175L16.9 35.825L17.425 34.675L18.075 33.725L18.825 32.925L19.65 32.325L20.525 31.825L21.4 31.475L22.225 31.225L22.975 31.075L23.625 30.975L24.15 30.925L24.475 30.9H39.075L40.8 30.775L42.275 30.425L43.525 29.9L44.55 29.2L45.375 28.4L46.05 27.525L46.55 26.625L46.925 25.725L47.175 24.85L47.35 24.05L47.45 23.35L47.5 22.825V15.175H52.725L53.075 15.2L53.6 15.275ZM37.425 50.9L36.85 51.725L36.65 52.75L36.85 53.775L37.425 54.6L38.25 55.175L39.275 55.375L40.3 55.175L41.125 54.6L41.7 53.775L41.9 52.75L41.7 51.725L41.125 50.9L40.3 50.325L39.275 50.125L38.25 50.325L37.425 50.9Z" fill="white"/>
</svg>
