<svg width="61" height="60" viewBox="0 0 61 60" fill="none" xmlns="http://www.w3.org/2000/svg">
<path d="M35.7249 29.6266C35.7249 31.1087 35.1363 32.5302 34.0885 33.5785C33.0407 34.6267 31.6195 35.2159 30.1374 35.2166C28.6548 35.2166 27.233 34.6277 26.1847 33.5793C25.1363 32.531 24.5474 31.1092 24.5474 29.6266C24.5474 28.1445 25.136 26.723 26.1838 25.6748C27.2316 24.6265 28.6528 24.0373 30.1349 24.0366C31.6175 24.0366 33.0393 24.6256 34.0876 25.6739C35.136 26.7222 35.7249 28.1441 35.7249 29.6266ZM42.3449 2.90161C38.9799 2.90161 34.5774 5.30161 30.1249 9.45661C25.6749 5.32411 21.2699 2.95161 17.9074 2.95161C16.8824 2.95161 15.9499 3.18411 15.1424 3.64661C11.7049 5.62911 10.9349 11.8066 12.7099 19.5591C5.0999 21.9091 0.149902 25.6666 0.149902 29.6266C0.149902 33.6016 5.1249 37.3691 12.7574 39.7016C10.9974 47.4841 11.7824 53.6716 15.2274 55.6516C16.0274 56.1191 16.9524 56.3391 17.9824 56.3391C21.3449 56.3391 25.7499 53.9391 30.2024 49.7791C34.6524 53.9141 39.0574 56.2866 42.4199 56.2866C43.4449 56.2866 44.3774 56.0616 45.1849 55.5991C48.6199 53.6191 49.3924 47.4416 47.6174 39.6866C55.1999 37.3566 60.1499 33.5916 60.1499 29.6266C60.1499 25.6516 55.1749 21.8841 47.5424 19.5466C49.3024 11.7716 48.5174 5.57911 45.0724 3.59661C44.2774 3.13661 43.3549 2.90411 42.3449 2.90161ZM42.3324 5.62661V5.64161C42.8949 5.64161 43.3474 5.75161 43.7274 5.95911C45.3924 6.91411 46.1149 10.5466 45.5524 15.2191C45.4174 16.3691 45.1974 17.5816 44.9274 18.8191C42.5274 18.2291 39.9124 17.7766 37.1599 17.4841C35.5099 15.2216 33.7974 13.1666 32.0724 11.3666C36.0524 7.66661 39.7899 5.63661 42.3349 5.62911L42.3324 5.62661ZM17.9074 5.67661C20.4374 5.67661 24.1924 7.69661 28.1824 11.3766C26.4674 13.1766 24.7574 15.2191 23.1324 17.4816C20.3649 17.7741 17.7474 18.2266 15.3499 18.8266C15.0699 17.6016 14.8624 16.4166 14.7149 15.2766C14.1399 10.6066 14.8499 6.97661 16.4999 6.00911C16.9749 5.78411 17.4999 5.68911 17.9074 5.67661ZM30.1124 13.3016C31.2499 14.4716 32.3874 15.7816 33.5124 17.2116C32.4124 17.1616 31.2874 17.1266 30.1499 17.1266C28.9999 17.1266 27.8624 17.1516 26.7499 17.2116C27.8499 15.7816 28.9874 14.4741 30.1124 13.3016ZM30.1499 19.8666C31.9999 19.8666 33.8424 19.9516 35.6549 20.0991C36.6699 21.5541 37.6599 23.1066 38.6124 24.7491C39.5424 26.3491 40.3874 27.9741 41.1574 29.6141C40.3874 31.2516 39.5424 32.8891 38.6249 34.4891C37.6749 36.1391 36.6924 37.7091 35.6749 39.1641C33.8549 39.3216 32.0099 39.4091 30.1499 39.4091C28.2999 39.4091 26.4574 39.3216 24.6449 39.1766C23.6299 37.7216 22.6399 36.1666 21.6874 34.5266C20.7574 32.9266 19.9124 31.3016 19.1424 29.6616C19.8999 28.0191 20.7574 26.3791 21.6749 24.7766C22.6249 23.1266 23.6074 21.5616 24.6249 20.1066C26.4449 19.9466 28.2899 19.8616 30.1499 19.8616V19.8666ZM21.0624 20.5016C20.4624 21.4441 19.8624 22.4091 19.3024 23.4016C18.7399 24.3766 18.2149 25.3566 17.7149 26.3366C17.0524 24.6966 16.4899 23.0616 16.0249 21.4691C17.6249 21.0941 19.3124 20.7591 21.0624 20.5016ZM39.2124 20.5016C40.9499 20.7591 42.6249 21.0766 44.2274 21.4691C43.7774 23.0491 43.2149 24.6741 42.5774 26.3016C42.0774 25.3266 41.5524 24.3441 40.9774 23.3666C40.4149 22.3866 39.8149 21.4316 39.2149 20.5016H39.2124ZM46.8699 22.1891C48.0799 22.5641 49.2299 22.9816 50.3074 23.4341C54.6374 25.2841 57.4374 27.7041 57.4374 29.6241C57.4249 31.5441 54.6249 33.9741 50.2949 35.8116C49.2449 36.2616 48.0949 36.6666 46.9074 37.0441C46.2074 34.6491 45.2924 32.1541 44.1574 29.5941C45.2824 27.0516 46.1824 24.5691 46.8699 22.1841V22.1891ZM13.3824 22.1991C14.0774 24.5991 14.9949 27.0916 16.1324 29.6491C15.0074 32.1916 14.1024 34.6741 13.4174 37.0591C12.2074 36.6841 11.0574 36.2641 9.9924 35.8091C5.6624 33.9666 2.8624 31.5441 2.8624 29.6241C2.8624 27.7041 5.6624 25.2691 9.9924 23.4341C11.0424 22.9841 12.1924 22.5791 13.3824 22.1991ZM42.5774 32.8991C43.2399 34.5416 43.8024 36.1791 44.2674 37.7691C42.6674 38.1616 40.9774 38.4941 39.2274 38.7441C39.8274 37.8066 40.4274 36.8391 40.9899 35.8491C41.5524 34.8741 42.0749 33.8791 42.5774 32.8991ZM17.7149 32.9491C18.2149 33.9291 18.7399 34.9066 19.3149 35.8866C19.8899 36.8616 20.4774 37.8166 21.0774 38.7441C19.3399 38.4891 17.6649 38.1691 16.0624 37.7791C16.5124 36.2041 17.0774 34.5741 17.7124 32.9466L17.7149 32.9491ZM44.9499 40.4166C45.2299 41.6491 45.4499 42.8366 45.5849 43.9741C46.1599 48.6441 45.4499 52.2741 43.7999 53.2441C43.4324 53.4691 42.9549 53.5641 42.3924 53.5641C39.8624 53.5641 36.1074 51.5466 32.1174 47.8641C33.8324 46.0641 35.5424 44.0241 37.1674 41.7641C39.9349 41.4691 42.5524 41.0166 44.9499 40.4166ZM15.3749 40.4416C17.7749 41.0266 20.3899 41.4791 23.1424 41.7716C24.7924 44.0341 26.5049 46.0891 28.2299 47.8866C24.2424 51.5941 20.4999 53.6241 17.9549 53.6241C17.4049 53.6116 16.9399 53.4991 16.5724 53.2941C14.9074 52.3441 14.1849 48.7091 14.7474 44.0366C14.8824 42.8866 15.1049 41.6766 15.3749 40.4416ZM26.7749 42.0416C27.8749 42.0916 28.9999 42.1266 30.1374 42.1266C31.2874 42.1266 32.4249 42.1016 33.5374 42.0416C32.4374 43.4716 31.2999 44.7791 30.1749 45.9541C29.0374 44.7791 27.8999 43.4716 26.7749 42.0416Z" fill="white"/>
</svg>
