<svg width="62" height="60" viewBox="0 0 62 60" fill="none" xmlns="http://www.w3.org/2000/svg">
<path d="M28.865 0H38.675V45.415C33.6425 46.37 29.9475 46.7525 25.935 46.7525C13.9575 46.7525 7.71497 41.3375 7.71497 30.9525C7.71497 20.9475 14.34 14.4525 24.5975 14.4525C26.19 14.4525 27.4 14.5775 28.865 14.96V0ZM28.865 22.8575C27.7986 22.4973 26.6778 22.3247 25.5525 22.3475C20.5825 22.3475 17.7175 25.405 17.7175 30.76C17.7175 35.985 20.4575 38.85 25.49 38.85C26.5725 38.85 27.465 38.7875 28.865 38.595V22.8575ZM54.285 15.15V37.895C54.285 45.73 53.7125 49.49 51.9925 52.7375C50.4 55.86 48.2975 57.835 43.965 60L34.855 55.6675C39.1875 53.63 41.29 51.8425 42.6275 49.105C44.03 46.3025 44.475 43.0525 44.475 34.5175V15.1475L54.285 15.15ZM44.475 0.0525H54.285V10.1175H44.475V0.0525Z" fill="white"/>
</svg>
