<svg width="61" height="60" viewBox="0 0 61 60" fill="none" xmlns="http://www.w3.org/2000/svg">
<path d="M35.1074 27.6949H40.4049C40.5278 27.6949 40.6457 27.6463 40.7329 27.5596C40.82 27.4729 40.8693 27.3553 40.8699 27.2324V22.5149C40.8699 22.3916 40.821 22.2733 40.7337 22.1861C40.6465 22.0989 40.5283 22.0499 40.4049 22.0499H35.1074C34.9848 22.0499 34.8671 22.0986 34.7804 22.1854C34.6937 22.2721 34.6449 22.3897 34.6449 22.5124V27.2324C34.6449 27.4874 34.8524 27.6949 35.1074 27.6949ZM27.7224 14.1199H33.0174C33.1408 14.1199 33.259 14.0709 33.3462 13.9837C33.4335 13.8965 33.4824 13.7782 33.4824 13.6549V8.93491C33.4818 8.81202 33.4325 8.69439 33.3454 8.60772C33.2582 8.52106 33.1403 8.47241 33.0174 8.47241H27.7224C27.5998 8.47241 27.4821 8.52114 27.3954 8.60788C27.3087 8.69461 27.2599 8.81225 27.2599 8.93491V13.6549C27.2599 13.9099 27.4649 14.1199 27.7224 14.1199ZM27.7224 20.9074H33.0174C33.1406 20.9068 33.2585 20.8576 33.3455 20.7705C33.4326 20.6834 33.4818 20.5655 33.4824 20.4424V15.7249C33.4818 15.602 33.4325 15.4844 33.3454 15.3977C33.2582 15.3111 33.1403 15.2624 33.0174 15.2624H27.7224C27.5998 15.2624 27.4821 15.3111 27.3954 15.3979C27.3087 15.4846 27.2599 15.6022 27.2599 15.7249V20.4424C27.2599 20.6974 27.4649 20.9049 27.7224 20.9074ZM20.3974 20.9074H25.6974C25.8199 20.9061 25.9369 20.8565 26.023 20.7695C26.1091 20.6824 26.1575 20.5649 26.1574 20.4424V15.7249C26.1574 15.6022 26.1087 15.4846 26.022 15.3979C25.9352 15.3111 25.8176 15.2624 25.6949 15.2624H20.3999C20.2773 15.2624 20.1596 15.3111 20.0729 15.3979C19.9862 15.4846 19.9374 15.6022 19.9374 15.7249V20.4424C19.9374 20.6974 20.1449 20.9049 20.3999 20.9074M12.9899 20.9074H18.2874C18.4103 20.9068 18.528 20.8575 18.6146 20.7703C18.7013 20.6832 18.7499 20.5653 18.7499 20.4424V15.7249C18.7499 15.6022 18.7012 15.4846 18.6145 15.3979C18.5277 15.3111 18.4101 15.2624 18.2874 15.2624H12.9899C12.8671 15.2624 12.7492 15.3111 12.662 15.3977C12.5749 15.4844 12.5256 15.602 12.5249 15.7249V20.4424C12.5249 20.6974 12.7349 20.9049 12.9899 20.9074ZM27.7224 27.6949H33.0174C33.1403 27.6949 33.2582 27.6463 33.3454 27.5596C33.4325 27.4729 33.4818 27.3553 33.4824 27.2324V22.5149C33.4824 22.3916 33.4335 22.2733 33.3462 22.1861C33.259 22.0989 33.1408 22.0499 33.0174 22.0499H27.7224C27.5998 22.0499 27.4821 22.0986 27.3954 22.1854C27.3087 22.2721 27.2599 22.3897 27.2599 22.5124V27.2324C27.2599 27.4874 27.4649 27.6949 27.7224 27.6949ZM20.3974 27.6949H25.6974C25.8197 27.6943 25.9367 27.6452 26.0229 27.5586C26.1091 27.4719 26.1574 27.3546 26.1574 27.2324V22.5149C26.1578 22.4542 26.1461 22.394 26.1232 22.3377C26.1003 22.2815 26.0665 22.2303 26.0238 22.1871C25.981 22.144 25.9302 22.1096 25.8742 22.0861C25.8183 22.0625 25.7582 22.0502 25.6974 22.0499H20.3974C20.2752 22.0506 20.1582 22.0996 20.072 22.1863C19.9858 22.2729 19.9374 22.3902 19.9374 22.5124V27.2324C19.9374 27.4874 20.1449 27.6949 20.3999 27.6949M12.9899 27.6949H18.2874C18.4101 27.6949 18.5277 27.6462 18.6145 27.5595C18.7012 27.4727 18.7499 27.3551 18.7499 27.2324V22.5149C18.7503 22.4542 18.7386 22.394 18.7157 22.3377C18.6928 22.2815 18.659 22.2303 18.6163 22.1871C18.5735 22.144 18.5227 22.1096 18.4667 22.0861C18.4108 22.0625 18.3507 22.0502 18.2899 22.0499H12.9899C12.8666 22.0499 12.7483 22.0989 12.6611 22.1861C12.5739 22.2733 12.5249 22.3916 12.5249 22.5149V27.2324C12.5249 27.4874 12.7349 27.6949 12.9899 27.6949ZM5.68994 27.6949H10.9899C11.1122 27.6943 11.2292 27.6452 11.3154 27.5586C11.4016 27.4719 11.4499 27.3546 11.4499 27.2324V22.5149C11.4503 22.4542 11.4386 22.394 11.4157 22.3377C11.3928 22.2815 11.359 22.2303 11.3163 22.1871C11.2735 22.144 11.2227 22.1096 11.1667 22.0861C11.1108 22.0625 11.0507 22.0502 10.9899 22.0499H5.68994C5.56772 22.0506 5.45072 22.0996 5.36452 22.1863C5.27833 22.2729 5.22994 22.3902 5.22994 22.5124V27.2324C5.22994 27.4874 5.43245 27.6949 5.68994 27.6949ZM59.5574 24.7249C59.3949 24.5974 57.8774 23.4499 54.6724 23.4499C53.8274 23.4524 52.9824 23.5249 52.1474 23.6674C51.5274 19.4174 48.0149 17.3424 47.8574 17.2524L46.9974 16.7549L46.4324 17.5724C45.7224 18.6674 45.2074 19.8774 44.9024 21.1474C44.3274 23.5724 44.6774 25.8524 45.9099 27.7999C44.4224 28.6299 42.0349 28.8324 41.5499 28.8499H2.02744C1.53123 28.8506 1.05546 29.0476 0.704111 29.398C0.352766 29.7485 0.154427 30.2237 0.152445 30.7199C0.106149 34.182 0.692431 37.6234 1.88244 40.8749C3.24495 44.4449 5.26994 47.0749 7.90744 48.6849C10.8574 50.4924 15.6574 51.5274 21.0949 51.5274C23.5524 51.5349 26.0024 51.3124 28.4199 50.8624C31.7771 50.2457 35.0074 49.072 37.9774 47.3899C40.4274 45.9724 42.6274 44.1699 44.5024 42.0499C47.6324 38.5049 49.4974 34.5574 50.8849 31.0499H51.4374C54.8674 31.0499 56.9749 29.6774 58.1374 28.5274C58.9099 27.7949 59.5124 26.9024 59.9049 25.9124L60.1499 25.1924L59.5574 24.7249Z" fill="white"/>
</svg>
