<svg width="61" height="60" viewBox="0 0 61 60" fill="none" xmlns="http://www.w3.org/2000/svg">
<path d="M39.78 22.4525H28.31V0H39.78C45.97 0 51.005 5.035 51.005 11.225C51.005 17.415 45.97 22.4525 39.78 22.4525ZM31.9875 18.775H39.78C43.9425 18.775 47.3275 15.3875 47.3275 11.2275C47.3275 7.0675 43.94 3.68 39.78 3.68H31.9875V18.775ZM31.9875 22.4525H20.52C14.33 22.4525 9.29498 17.4175 9.29498 11.2275C9.29498 5.0375 14.33 0 20.52 0H31.99V22.4525H31.9875ZM20.52 3.6775C16.3575 3.6775 12.9725 7.065 12.9725 11.225C12.9725 15.385 16.3575 18.775 20.52 18.775H28.3125V3.6775H20.52ZM31.9875 41.225H20.52C14.33 41.225 9.29498 36.19 9.29498 30C9.29498 23.81 14.33 18.775 20.52 18.775H31.99V41.225H31.9875ZM20.52 22.4525C16.3575 22.4525 12.9725 25.84 12.9725 30C12.9725 34.16 16.36 37.5475 20.52 37.5475H28.3125V22.4525H20.52ZM20.58 60C14.3575 60 9.29248 54.965 9.29248 48.775C9.29248 42.585 14.3275 37.55 20.5175 37.55H31.9875V48.6525C31.9875 54.91 26.87 60 20.58 60ZM20.52 41.225C18.5191 41.2276 16.6009 42.0237 15.186 43.4385C13.7712 44.8534 12.9751 46.7716 12.9725 48.7725C12.9725 52.935 16.385 56.32 20.5825 56.32C24.845 56.32 28.315 52.88 28.315 48.65V41.225H20.52ZM39.78 41.225H39.535C33.345 41.225 28.31 36.19 28.31 30C28.31 23.81 33.345 18.775 39.535 18.775H39.78C45.97 18.775 51.005 23.81 51.005 30C51.005 36.19 45.97 41.225 39.78 41.225ZM39.5375 22.4525C35.375 22.4525 31.99 25.84 31.99 30C31.99 34.16 35.3775 37.5475 39.5375 37.5475H39.7825C43.945 37.5475 47.33 34.16 47.33 30C47.33 25.84 43.94 22.4525 39.78 22.4525H39.5375Z" fill="white"/>
</svg>
