<svg width="61" height="60" viewBox="0 0 61 60" fill="none" xmlns="http://www.w3.org/2000/svg">
<path d="M28.445 31.3625H19.925V26.59H28.45V31.365L28.445 31.3625ZM36.97 0V15H51.97L36.97 0ZM40.3775 26.59H31.8525V31.365H40.3775V26.59ZM40.3775 34.7725H31.8525V39.5475H40.3775V34.7725ZM51.9675 16.25V55.91C51.9675 58.17 50.1375 60 47.8775 60H12.4225C11.8854 60 11.3536 59.8942 10.8573 59.6887C10.3611 59.4831 9.91024 59.1819 9.53045 58.8021C8.76343 58.035 8.33252 56.9947 8.33252 55.91V4.09C8.33252 1.83 10.1625 0 12.4225 0H35.7175V16.25H51.9675ZM43.785 23.1825H16.5125V42.955H43.7875V23.18L43.785 23.1825ZM28.445 34.7725H19.925V39.5475H28.45V34.7725H28.445Z" fill="white"/>
</svg>
