<svg width="61" height="61" viewBox="0 0 61 61" fill="none" xmlns="http://www.w3.org/2000/svg">
<path d="M0.149902 0.616577H60.1499V60.6166H0.149902V0.616577ZM55.2349 46.3066C54.7974 43.5691 53.0149 41.2691 47.7274 39.1241C45.8874 38.2616 43.8424 37.6616 43.2349 36.2741C43.0074 35.4491 42.9724 34.9991 43.1199 34.5116C43.4949 32.8966 45.4074 32.4116 46.9074 32.8616C47.8824 33.1616 48.7824 33.9116 49.3474 35.1116C51.9324 33.4216 51.9324 33.4216 53.7349 32.2991C53.0599 31.2491 52.7249 30.7966 52.2699 30.3491C50.6949 28.5866 48.5974 27.6866 45.1849 27.7641L43.4224 27.9866C41.7324 28.3991 40.1224 29.2991 39.1474 30.4991C36.2974 33.7266 37.1199 39.3516 40.5699 41.6766C43.9824 44.2266 48.9724 44.7866 49.6099 47.1891C50.2099 50.1141 47.4349 51.0516 44.6949 50.7141C42.6674 50.2641 41.5449 49.2491 40.3074 47.3741L35.7324 50.0016C36.2574 51.2016 36.8574 51.7241 37.7574 52.7741C42.1074 57.1641 52.9824 56.9391 54.9349 50.2641C55.0074 50.0391 55.5349 48.5016 55.1199 46.1391L55.2349 46.3066ZM32.7774 28.1941H27.1574C27.1574 33.0391 27.1349 37.8541 27.1349 42.7066C27.1349 45.7866 27.2924 48.6141 26.7899 49.4841C25.9649 51.2066 23.8399 50.9866 22.8749 50.6841C21.8849 50.1941 21.3824 49.5191 20.7999 48.5466C20.6424 48.2841 20.5249 48.0566 20.4824 48.0566L15.9199 50.8691C16.6824 52.4441 17.7949 53.7991 19.2299 54.6616C21.3674 55.9366 24.2399 56.3491 27.2474 55.6741C29.2049 55.1091 30.8924 53.9466 31.7749 52.1466C33.0499 49.8216 32.7799 46.9716 32.7674 43.7816C32.7974 38.6466 32.7674 33.5091 32.7674 28.3341L32.7774 28.1941Z" fill="white"/>
</svg>
