<svg width="61" height="60" viewBox="0 0 61 60" fill="none" xmlns="http://www.w3.org/2000/svg">
<path d="M43.1324 23.8875C39.9724 9.9375 32.5024 5.3525 31.6999 3.6C30.9999 2.615 30.3749 1.215 29.8624 0C29.7724 1.2375 29.7249 1.7125 28.5549 2.96C26.7474 4.375 17.4599 12.165 16.7049 28.01C15.9999 42.79 27.3799 51.5975 28.9249 52.72L29.0999 52.845C29.4216 55.2244 29.6967 57.6098 29.9249 60H31.1274C31.4124 57.42 31.8374 54.86 32.4024 52.325C33.4449 51.585 33.9124 51.1675 34.5274 50.5925C37.4398 47.8982 39.7543 44.6228 41.3214 40.9778C42.8885 37.3329 43.6732 33.3997 43.6249 29.4325C43.6499 27.3975 43.3674 25.2775 43.1324 23.8875ZM29.7924 44.375C29.7924 44.375 29.7924 23.6475 30.4799 23.65C31.0124 23.65 31.7049 50.3875 31.7049 50.3875C30.7524 50.275 29.7924 45.9875 29.7924 44.375Z" fill="white"/>
</svg>
