<svg width="61" height="60" viewBox="0 0 61 60" fill="none" xmlns="http://www.w3.org/2000/svg">
<path d="M11.2976 10.52C13.1626 12.035 13.8626 11.92 17.3676 11.685L50.4051 9.70249C51.1051 9.70249 50.5226 9.00249 50.2901 8.88749L44.8001 4.91999C43.7501 4.10499 42.3476 3.16999 39.6626 3.40249L7.67506 5.73749C6.51006 5.85249 6.27506 6.43749 6.74006 6.90249L11.2976 10.52ZM13.2801 18.22V52.98C13.2801 54.8475 14.2126 55.5475 16.3151 55.43L52.6226 53.33C54.7251 53.215 54.9601 51.93 54.9601 50.4125V15.885C54.9601 14.37 54.3776 13.5525 53.0901 13.6675L15.1476 15.885C13.7476 16.0025 13.2801 16.705 13.2801 18.22ZM49.1226 20.0825C49.3551 21.1325 49.1226 22.1825 48.0726 22.3025L46.3226 22.6525V48.3125C44.8026 49.13 43.4026 49.5975 42.2351 49.5975C40.3651 49.5975 39.8976 49.0125 38.4976 47.265L27.0551 29.3V46.68L30.6751 47.5C30.6751 47.5 30.6751 49.6 27.7551 49.6L19.7001 50.065C19.4676 49.6 19.7001 48.4325 20.5176 48.2L22.6176 47.6175V24.635L19.7051 24.4C19.4701 23.35 20.0551 21.835 21.6876 21.7175L30.3276 21.135L42.2376 39.3325V23.2325L39.2001 22.885C38.9676 21.6 39.9001 20.6675 41.0676 20.5525L49.1226 20.0825ZM4.99006 2.58749L38.2651 0.13749C42.3501 -0.21251 43.4026 0.0199902 45.9701 1.88749L56.5926 9.35249C58.3426 10.635 58.9276 10.985 58.9276 12.385V53.33C58.9276 55.895 57.9951 57.415 54.7276 57.645L16.0826 59.98C13.6326 60.0975 12.4626 59.7475 11.1776 58.1125L3.35506 47.9625C1.95506 46.095 1.37256 44.6975 1.37256 43.0625V6.66749C1.37256 4.56999 2.30756 2.81749 4.99006 2.58749Z" fill="white"/>
</svg>
