<svg width="61" height="60" viewBox="0 0 61 60" fill="none" xmlns="http://www.w3.org/2000/svg">
<path d="M25.7876 12.19L15.7621 7.12925L4.75962 12.6205L15.0561 17.7913L25.7876 12.19ZM30.3829 14.5092L40.8941 19.815L29.9886 25.2915L19.6761 20.112L30.3829 14.5092ZM44.4211 7.206L55.2194 12.6205L45.5619 17.471L35.0291 12.158L44.4211 7.206ZM39.7736 4.87375L30.0526 0L20.4356 4.79825L30.4526 9.85025L39.7736 4.87375ZM32.1734 46.7345V60L43.9501 54.1232L43.9369 40.852L32.1734 46.7345ZM43.9326 36.2202L43.9196 23.0882L32.1734 28.9272V42.0638L43.9326 36.2202ZM58.0709 33.759V47.0765L48.0264 52.0895L48.0191 38.8325L58.0709 33.759ZM58.0709 29.1025V16.0535L48.0076 21.056L48.0161 34.2143L58.0709 29.1025ZM28.0156 28.9275L20.0834 24.939V42.1765C20.0834 42.1765 10.3824 21.5355 9.48362 19.6815C9.36787 19.4422 8.89087 19.1798 8.76912 19.116C7.02962 18.203 1.93262 15.6213 1.93262 15.6213V46.075L8.98362 49.844V33.9255C8.98362 33.9255 18.5816 52.3693 18.6786 52.5705C18.7759 52.7723 19.7399 54.716 20.7691 55.399C22.1404 56.3065 28.0171 59.8405 28.0171 59.8405L28.0156 28.9275Z" fill="white"/>
</svg>
