<svg width="61" height="60" viewBox="0 0 61 60" fill="none" xmlns="http://www.w3.org/2000/svg">
<path d="M17.6749 25.5175H15.3149L14.0274 32.1375H16.1224C17.5124 32.1375 18.5474 31.875 19.2274 31.3525C19.9074 30.8275 20.3649 29.955 20.6024 28.73C20.8324 27.555 20.7274 26.725 20.2924 26.2425C19.8549 25.76 18.9849 25.5175 17.6749 25.5175ZM30.1499 14.22C13.5824 14.22 0.149902 21.285 0.149902 30C0.149902 38.715 13.5824 45.7825 30.1499 45.7825C46.7174 45.7825 60.1499 38.715 60.1499 30C60.1499 21.285 46.7174 14.22 30.1499 14.22ZM21.9999 32.8475C21.3474 33.4725 20.5624 33.9425 19.7074 34.225C18.8674 34.495 17.7949 34.635 16.4949 34.635H13.5424L12.7249 38.8375H9.2799L12.3549 23.0225H18.9799C20.9724 23.0225 22.4249 23.545 23.3399 24.5925C24.2549 25.6375 24.5299 27.0975 24.1649 28.9725C24.0251 29.7144 23.7677 30.4292 23.4024 31.09C23.0449 31.7275 22.5774 32.315 21.9999 32.8475ZM32.0599 34.635L33.4174 27.6375C33.5749 26.8425 33.5149 26.2975 33.2474 26.01C32.9799 25.72 32.4074 25.575 31.5299 25.575H28.7999L27.0399 34.6375H23.6199L26.6949 18.82H30.1124L29.2949 23.025H32.3399C34.2574 23.025 35.5774 23.36 36.3049 24.0275C37.0324 24.695 37.2499 25.7775 36.9624 27.275L35.5324 34.635H32.0599ZM51.0524 28.9725C50.9149 29.715 50.6573 30.4302 50.2899 31.09C49.9324 31.7275 49.4649 32.315 48.8874 32.8475C48.2345 33.4706 47.4516 33.941 46.5949 34.225C45.7549 34.495 44.6824 34.635 43.3799 34.635H40.4299L39.6124 38.84H36.1674L39.2424 23.025H45.8649C47.8574 23.025 49.3099 23.5475 50.2249 24.595C51.1399 25.6375 51.4174 27.0975 51.0524 28.9725ZM44.5649 25.5175H42.2074L40.9174 32.1375H43.0124C44.4049 32.1375 45.4399 31.875 46.1174 31.3525C46.7974 30.8275 47.2549 29.955 47.4949 28.73C47.7249 27.555 47.6174 26.725 47.1824 26.2425C46.7474 25.76 45.8724 25.5175 44.5649 25.5175Z" fill="white"/>
</svg>
