<svg width="61" height="60" viewBox="0 0 61 60" fill="none" xmlns="http://www.w3.org/2000/svg">
<path d="M41.585 41.26C43.76 41.0725 45.4425 39.16 45.335 36.875C45.2175 34.59 43.345 32.755 41.0625 32.755H40.91C39.7773 32.7954 38.707 33.2839 37.9344 34.1133C37.1618 34.9426 36.7501 36.0448 36.79 37.1775C36.865 38.375 37.355 39.35 38.025 40.06C35.405 45.155 31.4725 48.9 25.5125 52.0475C21.505 54.1425 17.2725 54.9325 13.1525 54.3725C9.70746 53.885 7.01246 52.3475 5.36246 49.875C2.89246 46.1275 2.66746 42.085 4.72496 38.04C6.22496 35.115 8.47246 32.9825 9.97246 31.9325C9.51964 30.6769 9.16851 29.3869 8.92246 28.075C-2.17004 36.02 -1.04004 46.88 2.32996 52.0125C4.83996 55.7575 9.97246 58.1525 15.59 58.1525C17.09 58.1525 18.665 58.0425 20.1975 57.6675C29.94 55.795 37.3175 49.9525 41.55 41.3375L41.585 41.26ZM54.955 31.895C49.155 25.075 40.61 21.33 30.87 21.33H29.595C28.9625 19.945 27.5025 19.0825 25.85 19.0825H25.7375C23.38 19.0825 21.5425 21.1075 21.62 23.465C21.695 25.71 23.605 27.585 25.89 27.585H26.075C26.8854 27.5537 27.6698 27.2897 28.3343 26.8247C28.9988 26.3597 29.5154 25.7132 29.8225 24.9625H31.21C36.9825 24.9625 42.4475 26.6475 47.43 29.9425C51.2475 32.455 53.985 35.75 55.5225 39.685C56.8675 42.905 56.795 46.0525 55.41 48.6775C53.2725 52.795 49.675 54.97 44.92 54.97C41.9225 54.97 39.0025 54.0325 37.5025 53.36C36.6025 54.105 35.1025 55.3425 34.0175 56.0925C37.3125 57.5875 40.6475 58.45 43.8675 58.45C51.1725 58.45 56.6025 54.3325 58.665 50.36C60.91 45.865 60.725 38.3 54.99 31.82L54.955 31.895ZM16.225 42.605C16.3 44.8525 18.2075 46.725 20.495 46.725H20.645C21.2079 46.7123 21.7626 46.587 22.2764 46.3566C22.7902 46.1262 23.2527 45.7954 23.6367 45.3835C24.0206 44.9716 24.3182 44.487 24.512 43.9583C24.7058 43.4296 24.7918 42.8674 24.765 42.305C24.765 40.055 22.8175 38.1875 20.5325 38.1875H20.3825C20.2325 38.1875 20.0075 38.1875 19.8175 38.26C16.71 33.015 15.3975 27.3925 15.8875 21.33C16.1875 16.76 17.6875 12.7875 20.38 9.49249C22.63 6.68249 26.8625 5.29249 29.7475 5.22249C37.8375 5.06999 41.21 15.15 41.47 19.1575L45.215 20.2825C44.3525 7.99249 36.715 1.54999 29.41 1.54999C22.55 1.54999 16.225 6.53249 13.675 13.8375C10.1925 23.575 12.4775 32.9425 16.75 40.435C16.375 40.9225 16.15 41.7825 16.225 42.605Z" fill="black"/>
</svg>
